<svg xmlns="http://www.w3.org/2000/svg" viewBox="0 0 512 512">
  <path fill="#a0a0b0" d="M32 256c0-10.9 .8-21.5 2.3-32l32.4 0C81.9 133.2 160.9 64 256 64c71.1 0 133.1 38.6 166.3 96L368 160l-16 0 0 32 16 0 69.1 0 26.9 0 6.7 0c6 20.3 9.3 41.8 9.3 64c0 10.9-.8 21.5-2.3 32l-32.4 0C430.1 378.8 351.1 448 256 448c-71.1 0-133.1-38.6-166.3-96l54.5 0 16 0 0-32-16 0-69.3 0-26.7 0-6.9 0c-6-20.3-9.3-41.8-9.3-64z"/>
  <path fill="#f0f0f0" d="M66.7 224C81.9 133.2 160.9 64 256 64c71.1 0 133.1 38.6 166.3 96L368 160l-16 0 0 32 16 0 69.1 0 26.9 0 6.7 0 9.3 0 0-16 0-96 0-16-32 0 0 16 0 60.6C408.8 75.5 337.5 32 256 32C143.2 32 49.8 115.4 34.3 224l32.4 0zM256 448c-71.1 0-133.1-38.6-166.3-96l54.5 0 16 0 0-32-16 0-69.3 0-26.7 0-6.9 0-9.1 0 0 16 0 96 0 16 32 0 0-16 0-60.2C103.4 436.6 174.7 480 256 480c112.8 0 206.2-83.4 221.7-192l-32.4 0C430.1 378.8 351.1 448 256 448z"/>
</svg>