<svg xmlns="http://www.w3.org/2000/svg" viewBox="0 0 512 512">
  <path fill="#a0a0b0" d="M64 256C64 150 150 64 256 64c71 0 133.1 38.6 166.3 96L336 160l-16 0 0 32 16 0 128 0 6.7 0c6 20.3 9.3 41.8 9.3 64c0 37.3-9.1 72.5-25.2 103.4l-28.4-14.8C394.3 406.1 330.1 448 256 448C150 448 64 362 64 256z"/>
  <path fill="#f0f0f0" d="M464 192l16 0 0-16 0-128 0-16-32 0 0 16 0 92.6C408.8 75.5 337.5 32 256 32C132.3 32 32 132.3 32 256s100.3 224 224 224c86.4 0 161.4-49 198.8-120.6l-28.4-14.8C394.3 406.1 330.1 448 256 448C150 448 64 362 64 256S150 64 256 64c71 0 133.1 38.6 166.3 96L336 160l-16 0 0 32 16 0 128 0z"/>
</svg>