<svg xmlns="http://www.w3.org/2000/svg" viewBox="0 0 512 512">
  <path fill="#a0a0b0" d="M32 361.4c19.1-19.1 38.2-38.2 57.4-57.4L112 326.6l11.3-11.3L224 214.6l84.7 84.7L320 310.6l11.3-11.3 144-144c3.8-3.8 7.5-7.5 11.4-11.3l0 304L32 448l0-86.6z"/>
  <path fill="#f0f0f0" d="M32 48l0-16L0 32 0 48 0 464l0 16 16 0 480 0 16 0 0-32-16 0L32 448 32 48zM475.3 155.3L486.6 144 464 121.4l-11.3 11.3L320 265.4l-84.7-84.7L224 169.4l-11.3 11.3-112 112L89.4 304 112 326.6l11.3-11.3L224 214.6l84.7 84.7L320 310.6l11.3-11.3 144-144z"/>
</svg>