<svg xmlns="http://www.w3.org/2000/svg" viewBox="0 0 640 512">
  <path fill="#a0a0b0" d="M32 32l0 352 199.7 0c.2 0 .4 0 .6 0l88.5 0c-.5-5.3-.7-10.6-.7-16c0-80.6 54.1-148.5 128-169.4l0-48L315.3 283.3 304 294.6l-11.3-11.3L224 214.6 123.3 315.3 112 326.6 89.4 304l11.3-11.3 112-112L224 169.4l11.3 11.3L304 249.4 425.4 128 368 128l-16 0 0-32 16 0 96 0 16 0 0 16 0 80.7c5.3-.5 10.6-.7 16-.7c16.6 0 32.7 2.3 48 6.6L544 32 32 32zM234.9 480l53.1 0 53.1 0 16.3 0-.7-4.5c-13.5-17.5-23.8-37.6-30-59.5L288 416l-42.4 0-10.7 64z"/>
  <path fill="#f0f0f0" d="M32 32l512 0 0 166.6c11.2 3.2 21.9 7.4 32 12.6L576 32l0-32L544 0 32 0 0 0 0 32 0 384l0 32 32 0 181.1 0-10.7 64L144 480l-16 0 0 32 16 0 72 0 144 0 34.8 0c-12.9-9.1-24.5-19.9-34.6-32l-19.1 0L288 480l-53.1 0 10.7-64 42.4 0 38.6 0c-2.9-10.3-4.9-21-5.9-32l-88.5 0c-.2 0-.4 0-.6 0L32 384 32 32zM480 192.7l0-80.7 0-16-16 0-96 0-16 0 0 32 16 0 57.4 0L304 249.4l-68.7-68.7L224 169.4l-11.3 11.3-112 112L89.4 304 112 326.6l11.3-11.3L224 214.6l68.7 68.7L304 294.6l11.3-11.3L448 150.6l0 48c10.3-2.9 21-4.9 32-5.9zM496 256a112 112 0 1 1 0 224 112 112 0 1 1 0-224zm0 256a144 144 0 1 0 0-288 144 144 0 1 0 0 288zM470.6 342.6a35.9 35.9 0 1 1 50.7 50.7 35.9 35.9 0 1 1 -50.7-50.7zM531.3 426l17.3 17.3 22.6-22.6L554 403.3c13.2-21.6 13.2-49.1 0-70.7l17.3-17.3-22.6-22.6L531.3 310c-21.6-13.2-49.1-13.2-70.7 0l-17.3-17.3-22.6 22.6L438 332.7c-13.2 21.6-13.2 49.1 0 70.7l-17.3 17.3 22.6 22.6L460.7 426c21.6 13.2 49.1 13.2 70.7 0z"/>
</svg>