<svg xmlns="http://www.w3.org/2000/svg" viewBox="0 0 512 512">
  <path fill="#a0a0b0" d="M32 352l140.1 0-32-32 45.3 0 59.3 59.3L256 390.6l11.3-11.3L326.6 320l45.3 0-32 32L480 352l0 128L32 480l0-128zm198.6-32l9.4 0 0 9.4-9.4-9.4zm41.4 0l9.4 0-9.4 9.4 0-9.4zm112 96a24 24 0 1 0 48 0 24 24 0 1 0 -48 0z"/>
  <path fill="#f0f0f0" d="M272 16l0-16L240 0l0 16 0 313.4L139.3 228.7 128 217.4 105.4 240l11.3 11.3 128 128L256 390.6l11.3-11.3 128-128L406.6 240 384 217.4l-11.3 11.3L272 329.4 272 16zM140.1 320L32 320 0 320l0 32L0 480l0 32 32 0 448 0 32 0 0-32 0-128 0-32-32 0-108.1 0-32 32L480 352l0 128L32 480l0-128 140.1 0-32-32zM432 416a24 24 0 1 0 -48 0 24 24 0 1 0 48 0z"/>
</svg>