<svg xmlns="http://www.w3.org/2000/svg" viewBox="0 0 576 512">
  <path fill="#a0a0b0" d="M35.2 148a24 24 0 1 0 41.6 24A24 24 0 1 0 35.2 148zm0 216a24 24 0 1 0 41.6-24A24 24 0 1 0 35.2 364zM200 56a24 24 0 1 0 48 0 24 24 0 1 0 -48 0zm0 186.6l0 26.9 24 13.7 24-13.7 0-26.9-24-13.7-24 13.7zM200 456a24 24 0 1 0 48 0 24 24 0 1 0 -48 0zM371.2 172a24 24 0 1 0 41.6-24 24 24 0 1 0 -41.6 24z"/>
  <path fill="#f0f0f0" d="M248 56a24 24 0 1 0 -48 0 24 24 0 1 0 48 0zm32 0c0 25.4-16.9 46.8-40 53.7l0 91.5L280 224l0 45.6 4.4 2.5c-5.8 8.9-10.8 18.4-15 28.3l-5.6-3.2L240 310.9l0 91.5c8.5 2.5 16.1 7 22.4 12.9c4.1 14.7 10 28.6 17.6 41.5c-.4 30.6-25.3 55.2-56 55.2c-30.9 0-56-25.1-56-56c0-25.4 16.9-46.8 40-53.7l0-91.5L168 288l0-45.6L94.7 200.5c-6.5 6.2-14.3 10.7-22.7 13.1l0 84.7c8.4 2.5 16.2 6.9 22.7 13.1L136 287.9l0 .1 0 18.6 15.9 9.1-41.3 23.6c5.5 23.4-4.6 48.6-26.5 61.3C57.2 416 23 406.8 7.5 380S1.2 319 28 303.5c3.9-2.2 7.9-4 12-5.2l0-84.6c-4.1-1.2-8.1-2.9-12-5.2C1.2 193-8 158.8 7.5 132S57.2 96 84 111.5c21.9 12.6 32 37.8 26.5 61.2l73.6 42L208 201.1l0-91.5c-23.1-6.9-40-28.3-40-53.7c0-30.9 25.1-56 56-56s56 25.1 56 56zM432 192c-25.2 0-49.1 5.3-70.8 14.8c-2.8-1.8-5.4-3.9-7.9-6.3L312 224.1l0-.1 0-18.6-15.9-9.1 41.3-23.6c-5.5-23.4 4.7-48.6 26.6-61.2c26.8-15.5 61-6.3 76.5 20.5c11.2 19.4 9.5 42.8-2.6 60.1c-2-.1-3.9-.1-5.9-.1zm-28-11.2a24 24 0 1 0 -24-41.6 24 24 0 1 0 24 41.6zM76.8 172A24 24 0 1 0 35.2 148a24 24 0 1 0 41.6 24zM248 456a24 24 0 1 0 -48 0 24 24 0 1 0 48 0zM35.2 364a24 24 0 1 0 41.6-24A24 24 0 1 0 35.2 364zM200 242.6l0 26.9 24 13.7 24-13.7 0-26.9-24-13.7-24 13.7zM544 368a112 112 0 1 0 -224 0 112 112 0 1 0 224 0zm-256 0a144 144 0 1 1 288 0 144 144 0 1 1 -288 0zm168-80l-10.7 64 66.7 0L408 448l10.7-64L352 384l104-96z"/>
</svg>