<svg xmlns="http://www.w3.org/2000/svg" viewBox="0 0 512 512">
  <path fill="#a0a0b0" d="M46 432.8l75.1-70.1 24.2-22.6-23.4-23.4L64 258.7l0-82.3 12.9-12.9L293.2 379.8c-3.4 11.5-5.2 23.6-5.2 36.2c0 11.1 1.4 21.8 4 32l-38.8 0-57.9-57.9-23.4-23.4-22.6 24.2L79.2 466 46 432.8zM99.5 140.9l52.7-52.7c75-75 196.5-75 271.5 0c56.7 56.7 70.5 139.9 41.5 209.6c-15.2-6.3-31.8-9.8-49.3-9.8c-45.9 0-86.2 24.2-108.8 60.6L99.5 140.9z"/>
  <path fill="#f0f0f0" d="M240 480l-44.7-44.7-22.6-22.6-21.8 23.4-49 52.5L80 512 57.4 489.4 22.6 454.6 0 432l23.4-21.8 52.5-49 23.4-21.8L76.7 316.7 32 272l0-108.8 97.6-97.6c87.5-87.5 229.3-87.5 316.8 0c67.1 67.1 82.7 166.3 46.8 248.3c-8.5-6.5-17.9-11.9-27.9-16.1c29-69.7 15.1-152.9-41.5-209.6c-75-75-196.5-75-271.5 0L99.5 140.9 307.2 348.6c-6 9.6-10.7 20.1-14 31.3L76.9 163.5 64 176.5l0 82.3 57.9 57.9 23.4 23.4-24.2 22.6L46 432.8 79.2 466l70.1-75.1 22.6-24.2 23.4 23.4L253.3 448l38.8 0c2.9 11.4 7.4 22.1 13.1 32L240 480zm240-64a64 64 0 1 0 -128 0 64 64 0 1 0 128 0zm-160 0a96 96 0 1 1 192 0 96 96 0 1 1 -192 0z"/>
</svg>