<svg xmlns="http://www.w3.org/2000/svg" viewBox="0 0 640 512">
  <path fill="#a0a0b0" d="M96 224l224 0c-20.1 26.7-32 60-32 96l-128 0-32 0 0 32 0 32-32 0 0-160z"/>
  <path fill="#f0f0f0" d="M160 32l0 128-32 0 0-128 0-32 32 0L448 0l64 64 0 96-32 0 0-82.7L434.7 32 160 32zM320 224L96 224l0 160 32 0 0-32 0-32 32 0 128 0c0 11 1.1 21.7 3.2 32L160 352l0 128 288 0 32 0 0-3.2c6.2-1.3 12.2-2.9 18.2-4.8L512 485.8l0 26.2-32 0-320 0-32 0 0-32 0-64-32 0-32 0 0-32 0-160 0-32 32 0 256 0c-12.1 9.1-22.9 19.9-32 32zM448 416.2a96 96 0 1 0 0-192 96 96 0 1 0 0 192zm0 32c-70.7 0-128-57.3-128-128s57.3-128 128-128s128 57.3 128 128c0 29.6-10 56.8-26.9 78.5l78.1 77.7 11.3 11.3-22.6 22.7L604.7 499l-78.2-77.8c-21.7 16.9-48.9 26.9-78.5 26.9z"/>
</svg>