<svg xmlns="http://www.w3.org/2000/svg" viewBox="0 0 448 512">
  <path class="fa-secondary" d="M64 288l0 32 80 0 8 0 4.8 6.4 32.5 43.3 52.4-104.8L256 236.2l14.3 28.6L297.9 320l54.1 0 16 0 0 32-16 0-64 0-9.9 0-4.4-8.8L256 307.8l-49.7 99.4-11.6 23.2-15.5-20.7L136 352l-72 0 0 32 32 0 0 96 320 0 0-288-144 0-16 0 0-16 0-144L96 32l0 256-32 0z"/>
  <path class="fa-primary" d="M416 192l0 288L96 480l0-96-32 0 0 96 0 32 32 0 320 0 32 0 0-32 0-328L296 0 96 0 64 0l0 32 0 256 32 0L96 32l160 0 0 144 0 16 16 0 144 0zm-5.3-32L288 160l0-122.7L410.7 160zM270.3 264.8L256 236.2l-14.3 28.6L189.3 369.7l-32.5-43.3L152 320l-8 0L16 320 0 320l0 32 16 0 120 0 43.2 57.6 15.5 20.7 11.6-23.2L256 307.8l17.7 35.4 4.4 8.8 9.9 0 64 0 16 0 0-32-16 0-54.1 0-27.6-55.2z"/>
</svg>