<svg xmlns="http://www.w3.org/2000/svg" viewBox="0 0 512 512">
  <path class="fa-secondary" d="M32 80l32 0 0 32-32 0 0-32zM160 240l32 0 0 32-32 0 0-32zm0 160l32 0 0 32-32 0 0-32z"/>
  <path class="fa-primary" d="M32 80l0 32 32 0 0-32L32 80zM0 48l32 0 32 0 32 0 0 32 0 32 0 32-32 0 0 96 64 0 0-32 32 0 32 0 32 0 0 32 0 32 0 32-32 0-32 0-32 0 0-32-64 0 0 128 64 0 0-32 32 0 32 0 32 0 0 32 0 32 0 32-32 0-32 0-32 0 0-32-80 0-16 0 0-16 0-160 0-112L0 144l0-32L0 80 0 48zM160 80l16 0 320 0 16 0 0 32-16 0-320 0-16 0 0-32zM288 240l16 0 192 0 16 0 0 32-16 0-192 0-16 0 0-32zm0 160l16 0 192 0 16 0 0 32-16 0-192 0-16 0 0-32zM192 240l-32 0 0 32 32 0 0-32zM160 400l0 32 32 0 0-32-32 0z"/>
</svg>