<svg xmlns="http://www.w3.org/2000/svg" viewBox="0 0 512 512">
  <path class="fa-secondary" d="M32 64l448 0 0 128L32 192 32 64zm0 256l448 0 0 128L32 448l0-128zM304 128a24 24 0 1 0 48 0 24 24 0 1 0 -48 0zm0 256a24 24 0 1 0 48 0 24 24 0 1 0 -48 0zm80-256a24 24 0 1 0 48 0 24 24 0 1 0 -48 0zm0 256a24 24 0 1 0 48 0 24 24 0 1 0 -48 0z"/>
  <path class="fa-primary" d="M32 64l0 128 448 0 0-128L32 64zM0 32l32 0 448 0 32 0 0 32 0 128 0 32-32 0L32 224 0 224l0-32L0 64 0 32zM32 320l0 128 448 0 0-128L32 320zM0 288l32 0 448 0 32 0 0 32 0 128 0 32-32 0L32 480 0 480l0-32L0 320l0-32zm304 96a24 24 0 1 1 48 0 24 24 0 1 1 -48 0zm24-280a24 24 0 1 1 0 48 24 24 0 1 1 0-48zm56 280a24 24 0 1 1 48 0 24 24 0 1 1 -48 0zm24-280a24 24 0 1 1 0 48 24 24 0 1 1 0-48z"/>
</svg>