<svg xmlns="http://www.w3.org/2000/svg" viewBox="0 0 512 512">
  <path class="fa-secondary" d="M32 102.3l0 48.1 45.8 69.9c11 16.9 17.1 36.5 17.6 56.6c.6 24.2-7 47.9-21.6 67.3L48 378.7 48 429l141.1-12.8c1-.1 1.9-.1 2.9-.1c28 0 55.1 9.5 77 27l46.2 37 49 0-4.5-40.3c-5.9-53.5 16.8-106.1 59.9-138.4L480 256l0-41.8-53.6-20.1C383.4 178 350 143.3 335.5 99.8L312.9 32 271 32 245.4 62.7c-35.1 42.1-90.1 62-144 52.2L32 102.3z"/>
  <path class="fa-primary" d="M51 237.8c7.8 11.9 12.1 25.7 12.4 39.8c.4 17-4.9 33.7-15.2 47.4L16 368l0 63.9L16 464l32-2.9L192 448c20.7 0 40.8 7 57 20l55 44 63.8 0 32.2 0-3.6-32-4.9-43.9c-4.7-42.2 13.3-83.8 47.3-109.3L512 272l0-80-74.4-27.9c-33.9-12.7-60.3-40.1-71.7-74.4L336 0 256 0 220.8 42.2c-27.7 33.2-71.1 49-113.7 41.2L32 69.8 0 64 0 96.5 0 160l51 77.8zM32 150.5l0-48.1L101.4 115c53.9 9.8 108.9-10.2 144-52.2L271 32l41.9 0 22.6 67.8c14.5 43.5 47.9 78.2 90.8 94.3L480 214.2l0 41.8-60.4 45.3c-43 32.3-65.8 84.9-59.9 138.4l4.5 40.3-49 0L269 443c-21.8-17.5-49-27-77-27c-1 0-1.9 0-2.9 .1L48 429l0-50.3 25.8-34.4c14.5-19.4 22.1-43.1 21.6-67.3c-.5-20.2-6.6-39.8-17.6-56.6L32 150.5z"/>
</svg>