<svg xmlns="http://www.w3.org/2000/svg" viewBox="0 0 640 512">
  <path class="fa-secondary" d="M36.9 480L208 480l0-159.7c0-.2 0-.4 0-.6l0-110.6L61.7 306.7 36.9 480zM240 209.1l0 106.4 93.7 156.2c1.6 2.6 2.3 5.4 2.3 8.2l75.1 0L386.3 306.7 240 209.1zm24.9-69.9c62.7 41.8 125.4 83.6 188.2 125.4c2.6 18.5 5.3 36.9 7.9 55.4l142.1 0L578.3 146.7 416 38.5 264.9 139.2z"/>
  <path class="fa-primary" d="M236.1 120L416 0 608 128l27.4 192 4.6 32-32.3 0-142.1 0L461 320l142.1 0L578.3 146.7 416 38.5 264.9 139.2l-18.7-12.5L236.1 120zM32.3 512L0 512l4.6-32L32 288 224 160 416 288l27.4 192 4.6 32-32.3 0L32.3 512zm269-32L240 377.8 240 480l61.3 0zM208 320.3c0-.2 0-.4 0-.6l0-110.6L61.7 306.7 36.9 480 208 480l0-159.7zm178.3-13.6L240 209.1l0 106.4 93.7 156.2c1.6 2.6 2.3 5.4 2.3 8.2l75.1 0L386.3 306.7z"/>
</svg>