<svg xmlns="http://www.w3.org/2000/svg" viewBox="0 0 448 512">
  <path class="fa-secondary" d="M64 96l0 384 320 0 0-384L64 96zm48 64l32 0 0 16 0 224 0 16-32 0 0-16 0-224 0-16zm36.9-96l150.3 0-20-32L168.9 32l-20 32zM208 160l32 0 0 16 0 224 0 16-32 0 0-16 0-224 0-16zm96 0l32 0 0 16 0 224 0 16-32 0 0-16 0-224 0-16z"/>
  <path class="fa-primary" d="M160 0l-8.9 0-4.7 7.5L111.1 64 64 64 32 64 0 64 0 96l32 0 0 384 0 32 32 0 320 0 32 0 0-32 0-384 32 0 0-32-32 0-32 0-47.1 0L301.6 7.5 296.9 0 288 0 160 0zM299.1 64L148.9 64l20-32 110.3 0 20 32zM64 480L64 96l320 0 0 384L64 480zm80-304l0-16-32 0 0 16 0 224 0 16 32 0 0-16 0-224zm96 0l0-16-32 0 0 16 0 224 0 16 32 0 0-16 0-224zm96 0l0-16-32 0 0 16 0 224 0 16 32 0 0-16 0-224z"/>
</svg>