<svg width="2000" height="1400" xmlns="http://www.w3.org/2000/svg"><defs><linearGradient id="a" gradientTransform="rotate(90)"><stop offset="5%" stop-color="#0c0f0e"/><stop offset="95%" stop-color="#484b4a"/></linearGradient><linearGradient id="b" gradientTransform="rotate(90)"><stop offset="5%" stop-color="#0e130f"/><stop offset="95%" stop-color="#4a4e4b"/></linearGradient><linearGradient id="c" gradientTransform="rotate(90)"><stop offset="5%" stop-color="#0f1611"/><stop offset="95%" stop-color="#4b504c"/></linearGradient><linearGradient id="d" gradientTransform="rotate(90)"><stop offset="5%" stop-color="#111913"/><stop offset="95%" stop-color="#4c524e"/></linearGradient><linearGradient id="e" gradientTransform="rotate(90)"><stop offset="5%" stop-color="#121d14"/><stop offset="95%" stop-color="#4d554e"/></linearGradient><linearGradient id="f" gradientTransform="rotate(90)"><stop offset="5%" stop-color="#142016"/><stop offset="95%" stop-color="#4e5750"/></linearGradient><linearGradient id="g" gradientTransform="rotate(90)"><stop offset="5%" stop-color="#152418"/><stop offset="95%" stop-color="#4f5a51"/></linearGradient><linearGradient id="h" gradientTransform="rotate(90)"><stop offset="5%" stop-color="#172719"/><stop offset="95%" stop-color="#515d52"/></linearGradient><linearGradient id="i" gradientTransform="rotate(90)"><stop offset="5%" stop-color="#182a1b"/><stop offset="95%" stop-color="#515f54"/></linearGradient><linearGradient id="j" gradientTransform="rotate(90)"><stop offset="5%" stop-color="#1a2a1b"/><stop offset="95%" stop-color="#535f54"/></linearGradient><linearGradient id="k" gradientTransform="rotate(90)"><stop offset="5%" stop-color="#1d2619"/><stop offset="95%" stop-color="#555c52"/></linearGradient><linearGradient id="l" gradientTransform="rotate(90)"><stop offset="5%" stop-color="#202117"/><stop offset="95%" stop-color="#575851"/></linearGradient><linearGradient id="m" gradientTransform="rotate(90)"><stop offset="5%" stop-color="#231d15"/><stop offset="95%" stop-color="#5a554f"/></linearGradient><linearGradient id="n" gradientTransform="rotate(90)"><stop offset="5%" stop-color="#251913"/><stop offset="95%" stop-color="#5b524e"/></linearGradient><linearGradient id="o" gradientTransform="rotate(90)"><stop offset="5%" stop-color="#281412"/><stop offset="95%" stop-color="#5d4e4d"/></linearGradient><linearGradient id="p" gradientTransform="rotate(90)"><stop offset="5%" stop-color="#2b1010"/><stop offset="95%" stop-color="#604b4b"/></linearGradient><linearGradient id="q" gradientTransform="rotate(90)"><stop offset="5%" stop-color="#2e0c0e"/><stop offset="95%" stop-color="#62484a"/></linearGradient><linearGradient id="r" gradientTransform="rotate(90)"><stop offset="5%" stop-color="#30070c"/><stop offset="95%" stop-color="#634548"/></linearGradient><linearGradient id="s" gradientTransform="rotate(90)"><stop offset="5%" stop-color="#33030a"/><stop offset="95%" stop-color="#664247"/></linearGradient></defs><path fill="#0b0c0c" d="M0 0h2000v1400H0z"/><path d="M0 70c27.955-10.316 55.91-20.633 91-15 35.09 5.633 77.315 27.215 114 30s67.831-13.228 100-16c32.169-2.772 65.36 7.698 98 8 32.64.302 64.727-9.565 100-10 35.273-.435 73.732 8.56 105 10 31.268 1.44 55.346-4.675 83-9 27.654-4.325 58.884-6.861 97-10 38.116-3.139 83.117-6.88 117-2 33.883 4.88 56.648 18.383 86 19 29.352.617 65.291-11.65 103-14 37.709-2.35 77.186 5.22 112 8 34.814 2.78 64.963.77 94-2 29.037-2.77 56.96-6.3 91-3s74.195 13.43 107 14c32.805.57 58.26-8.422 91-11 32.74-2.578 72.765 1.257 108 3s65.679 1.392 100 3 72.52 5.174 107 5c34.48-.174 65.24-4.087 136-8l-40 1330H0Z" fill="url(#a)"/><path d="M0 140c35.406-4.657 70.812-9.314 102-10 31.188-.686 58.158 2.597 90 2s68.556-5.076 106-8c37.444-2.924 75.618-4.295 107 0 31.382 4.295 55.973 14.255 88 19 32.027 4.745 71.491 4.276 105 1s61.062-9.36 97-8c35.938 1.36 80.26 10.164 115 15 34.74 4.836 59.898 5.706 90 1 30.102-4.706 65.147-14.986 99-16 33.853-1.014 66.512 7.238 102 6 35.488-1.238 73.805-11.965 105-17 31.195-5.035 55.269-4.376 84 3s62.12 21.471 99 23 77.25-9.508 112-15c34.75-5.492 63.878-5.438 96-3 32.122 2.438 67.239 7.262 103 13 35.761 5.738 72.166 12.391 107 8s68.095-19.826 100-24c31.905-4.174 62.452 2.913 133 10l-40 1260H0Z" fill="url(#b)"/><path d="M0 210c33.307-7.44 66.615-14.878 100-14 33.385.878 66.85 10.073 101 12 34.15 1.927 68.99-3.415 101-2 32.01 1.415 61.195 9.588 95 9 33.805-.588 72.233-9.937 108-9 35.767.937 68.874 12.16 101 15 32.126 2.84 63.271-2.702 94-8s61.041-10.353 95-9c33.959 1.353 71.563 9.113 106 8 34.437-1.113 65.705-11.098 96-17 30.295-5.902 59.616-7.721 94 1s73.831 27.982 111 29c37.169 1.018 72.058-16.208 105-19 32.942-2.792 63.935 8.85 97 8 33.065-.85 68.2-14.192 100-16 31.8-1.808 60.261 7.919 92 14 31.739 6.081 66.755 8.517 103 8 36.245-.517 73.72-3.985 109-4 35.28-.015 68.366 3.424 100 3 31.634-.424 61.817-4.712 132-9l-40 1190H0Z" fill="url(#c)"/><path d="M0 280c30.77-4.924 61.539-9.849 93-9 31.461.849 63.615 7.471 98 7 34.385-.471 71.002-8.037 107-11 35.998-2.963 71.379-1.324 107 6 35.621 7.324 71.483 20.332 104 19 32.517-1.332 61.688-17.004 96-18 34.312-.996 73.764 12.685 105 16 31.236 3.315 54.255-3.737 87-11s75.216-14.738 110-14c34.784.738 61.883 9.687 95 15 33.117 5.313 72.253 6.988 108 6 35.747-.988 68.105-4.639 99-2 30.895 2.639 60.325 11.568 89 9 28.675-2.568 56.594-16.632 94-23 37.406-6.368 84.3-5.04 118-2s54.207 7.793 86 10 74.872 1.87 112-1 68.304-8.273 99-9c30.696-.727 60.913 3.22 93 6s66.043 4.39 140 6l-40 1120H0Z" fill="url(#d)"/><path d="M0 350c29.042-3.604 58.084-7.207 92-6 33.916 1.207 72.705 7.226 106 11s61.095 5.303 96 2 76.916-11.44 109-12c32.084-.56 54.241 6.455 88 6 33.759-.455 79.12-8.382 113-7 33.88 1.382 56.279 12.07 86 11 29.721-1.07 66.765-13.902 102-13 35.235.902 68.66 15.538 102 19 33.34 3.462 66.594-4.25 98-8 31.406-3.75 60.963-3.54 96 0s75.553 10.413 111 7c35.447-3.413 65.824-17.11 101-18 35.176-.89 75.15 11.029 107 16 31.85 4.971 55.576 2.994 88-2s73.547-13.007 106-12c32.453 1.007 56.235 11.033 90 17 33.765 5.967 77.514 7.876 114 2 36.486-5.876 65.71-19.536 97-23 31.29-3.464 64.645 3.268 138 10l-40 1050H0Z" fill="url(#e)"/><path d="M0 420c33.478.652 66.957 1.304 99 0 32.043-1.304 62.652-4.563 99-8 36.348-3.437 78.437-7.05 110-2 31.563 5.05 52.602 18.766 86 16 33.398-2.766 79.155-22.013 112-20 32.845 2.013 52.778 25.286 82 28 29.222 2.714 67.731-15.132 104-17 36.269-1.868 70.296 12.244 104 17 33.704 4.756 67.086.158 102-7s71.36-16.877 107-17c35.64-.123 70.474 9.35 99 11 28.526 1.65 50.744-4.524 85-7s80.551-1.255 115-3 57.05-6.455 90-6c32.95.455 76.245 6.075 111 12 34.755 5.925 60.967 12.154 89 15s57.885 2.31 96-1 84.492-9.391 118-10c33.508-.609 54.145 4.255 84 5 29.855.745 68.927-2.627 148-6l-40 980H0Z" fill="url(#f)"/><path d="M0 490c30.76-5.461 61.52-10.923 96-8s72.68 14.23 104 21c31.32 6.77 55.763 9.003 89 2s75.269-23.242 112-24c36.731-.758 68.161 13.965 98 20s58.086 3.381 92-3 73.493-16.49 110-19c36.507-2.51 69.94 2.577 102 2s62.746-6.818 94-3c31.254 3.818 63.076 17.694 97 24 33.924 6.306 69.95 5.043 105-4s69.122-25.865 101-24c31.878 1.865 61.562 22.417 95 25 33.438 2.583 70.629-12.802 105-19 34.371-6.198 65.923-3.21 99 3s67.678 15.639 98 17c30.322 1.361 56.365-5.347 92-13s80.863-16.253 117-11 63.182 24.358 94 29c30.818 4.642 65.41-5.179 140-15l-40 910H0Z" fill="url(#g)"/><path d="M0 560c34.999 3.196 69.997 6.393 105 7 35.003.607 70.01-1.374 104-5 33.99-3.626 66.964-8.897 96-9 29.036-.103 54.136 4.961 89 8 34.864 3.039 79.493 4.051 113 6 33.507 1.949 55.893 4.834 88 5 32.107.166 73.936-2.387 110-8 36.064-5.613 66.365-14.286 99-12 32.635 2.286 67.606 15.533 98 20 30.394 4.467 56.212.156 88-4 31.788-4.156 69.547-8.156 102-6 32.453 2.156 59.6 10.47 96 12 36.4 1.53 82.05-3.722 121-8 38.95-4.278 71.2-7.58 98-4 26.8 3.58 48.152 14.045 81 13s77.194-13.598 112-16c34.806-2.402 60.072 5.346 95 6 34.928.654 79.52-5.785 114-6 34.48-.215 58.852 5.796 89 7 30.148 1.204 66.074-2.398 142-6l-40 840H0Z" fill="url(#h)"/><path d="M0 630c38.812-4.258 77.624-8.516 110-5 32.376 3.516 58.315 14.807 87 17 28.685 2.193 60.117-4.713 96-11s76.219-11.956 111-11c34.781.956 64.008 8.537 96 10 31.992 1.463 66.75-3.19 98-4s58.989 2.226 92 4 71.294 2.285 107 0 68.834-7.367 104-12 72.369-8.819 107-2c34.631 6.819 66.69 24.642 99 24 32.31-.642 64.872-19.748 95-18 30.128 1.748 57.824 24.35 94 23 36.176-1.35 80.833-26.653 115-27 34.167-.347 57.843 24.262 91 27 33.157 2.738 75.796-16.396 107-24 31.204-7.604 50.972-3.677 80 1s67.315 10.105 106 11c38.685.895 77.767-2.744 112-4 34.233-1.256 63.616-.128 133 1l-40 770H0Z" fill="url(#i)"/><path d="M0 700c28.112 2.05 56.224 4.1 89 0s70.216-14.35 103-11c32.784 3.35 60.913 20.3 98 25 37.087 4.7 83.133-2.85 118-7 34.867-4.15 58.556-4.9 89-2 30.444 2.9 67.645 9.45 102 10 34.355.55 65.865-4.9 97-9 31.135-4.1 61.896-6.85 97-7 35.104-.15 74.55 2.3 111 1 36.45-1.3 69.902-6.347 101-6 31.098.347 59.843 6.088 91 12 31.157 5.912 64.726 11.994 101 6s75.252-24.064 111-23c35.748 1.064 68.267 21.262 100 23 31.733 1.738 62.682-14.985 93-16 30.318-1.015 60.005 13.678 94 17 33.995 3.322 72.298-4.728 104-6 31.702-1.272 56.804 4.235 90 3 33.196-1.235 74.484-9.21 111-12 36.516-2.79 68.258-.395 140 2l-40 700H0Z" fill="url(#j)"/><path d="M0 770c36.898-3.052 73.796-6.104 108-7 34.204-.896 65.715.364 97 5 31.285 4.636 62.343 12.649 94 14 31.657 1.351 63.91-3.958 98-4 34.09-.042 70.013 5.184 103 1 32.987-4.184 63.036-17.778 95-17 31.964.778 65.841 15.93 101 15 35.159-.93 71.6-17.94 105-23 33.4-5.06 63.762 1.83 99 5s75.352 2.619 110 1c34.648-1.619 63.829-4.305 96-2 32.171 2.305 67.332 9.602 101 9 33.668-.602 65.843-9.105 98-10 32.157-.895 64.297 5.816 100 5 35.703-.816 74.97-9.16 105-7s50.82 14.825 82 19c31.18 4.175 72.75-.139 109-5s67.183-10.27 102-11c34.817-.73 73.52 3.22 107 6 33.48 2.78 61.74 4.39 130 6l-40 630H0Z" fill="url(#k)"/><path d="M0 840c33.485-4.136 66.97-8.272 99-5 32.03 3.272 62.608 13.952 96 11s69.6-19.534 105-22c35.4-2.466 69.992 9.185 105 15 35.008 5.815 70.43 5.793 101 7 30.57 1.207 56.285 3.644 90 0s75.43-13.37 110-16c34.57-2.63 61.996 1.835 93 3 31.004 1.165 65.586-.97 96 1s56.66 8.044 94 8c37.34-.044 85.776-6.205 121-9 35.224-2.795 57.238-2.225 87-3 29.762-.775 67.272-2.897 101 0 33.728 2.897 63.674 10.811 94 12s61.032-4.348 96-1 74.199 15.58 109 13 65.174-19.97 99-25c33.826-5.03 71.107 2.3 107 7s70.398 6.772 103 7c32.602.228 63.301-1.386 134-3l-40 560H0Z" fill="url(#l)"/><path d="M0 910c37.32 1.961 74.64 3.923 107 3s59.763-4.73 91-9c31.237-4.27 66.308-9.006 102-5 35.692 4.006 72.005 16.754 108 16 35.995-.754 71.673-15.01 100-15 28.327.01 49.304 14.283 82 19 32.696 4.717 77.113-.124 114-4s66.246-6.786 97-7c30.754-.214 62.903 2.268 98 1 35.097-1.268 73.14-6.286 106-9 32.86-2.714 60.534-3.125 90-3s60.725.786 97 6 77.566 14.98 112 15c34.434.02 62.01-9.707 96-11 33.99-1.293 74.392 5.847 110 9 35.608 3.153 66.42 2.32 97 1 30.58-1.32 60.929-3.127 94-4 33.071-.873 68.865-.812 103 2 34.135 2.812 66.61 8.375 99 8s64.695-6.687 137-13l-40 490H0Z" fill="url(#m)"/><path d="M0 980c35.347-9.146 70.694-18.292 103-14 32.306 4.292 61.57 22.02 94 28s68.024.21 106-1 78.333 2.143 108 0 48.642-9.781 81-8c32.358 1.781 78.098 12.982 117 8 38.902-4.982 70.966-26.146 101-28 30.034-1.854 58.039 15.603 86 21s55.878-1.266 94-3 86.448 1.462 120 5c33.552 3.538 52.331 7.418 80 7 27.669-.418 64.228-5.135 100-11 35.772-5.865 70.756-12.877 104-11 33.244 1.877 64.747 12.645 99 15 34.253 2.355 71.256-3.702 106-3s67.23 8.163 100 9c32.77.837 65.825-4.951 98-5 32.175-.049 63.47 5.64 95 1s63.294-19.612 98-23c34.706-3.388 72.353 4.806 150 13l-40 420H0Z" fill="url(#n)"/><path d="M0 1050c40.306-9.24 80.611-18.48 110-15 29.389 3.48 47.86 19.68 78 21 30.14 1.32 71.95-12.242 110-14 38.05-1.758 72.343 8.288 103 7 30.657-1.288 57.677-13.91 93-12 35.323 1.91 78.948 18.356 115 24 36.052 5.644 64.53.489 97-7s68.928-17.311 101-20 59.756 1.756 89 5c29.244 3.244 60.05 5.287 96 4s77.048-5.906 112-2c34.952 3.906 63.758 16.335 97 19 33.242 2.665 70.918-4.433 105-9 34.082-4.567 64.568-6.603 94-6 29.432.603 57.81 3.844 91 4 33.19.156 71.195-2.773 109-2 37.805.773 75.412 5.248 109 8 33.588 2.752 63.158 3.78 92 6s56.955 5.634 90 4c33.045-1.634 71.023-8.317 149-15l-40 350H0Z" fill="url(#o)"/><path d="M0 1120c39.307-6.887 78.614-13.773 108-12 29.386 1.773 48.852 12.206 83 13 34.148.794 82.979-8.051 119-8 36.021.051 59.233 8.999 91 13 31.767 4.001 72.088 3.056 107-2 34.912-5.056 64.415-14.221 97-14 32.585.221 68.253 9.829 103 12 34.747 2.171 68.573-3.094 97-7 28.427-3.906 51.453-6.452 86-3s80.614 12.904 115 17c34.386 4.096 57.091 2.838 87-1s67.021-10.255 100-15c32.979-4.745 61.825-7.817 96-5s73.68 11.523 108 17c34.32 5.477 63.456 7.724 94 8 30.544.276 62.497-1.42 99-1 36.503.42 77.558 2.958 113 2 35.442-.958 65.273-5.412 98-7 32.727-1.588 68.35-.31 102-1 33.65-.69 65.325-3.345 137-6l-40 280H0Z" fill="url(#p)"/><path d="M0 1190c34.887 4.683 69.775 9.365 101 8 31.225-1.365 58.79-8.778 89-11 30.21-2.222 63.069.747 101 3s80.935 3.792 118 3c37.065-.792 68.192-3.913 98-6 29.808-2.087 58.299-3.139 94-2 35.701 1.139 78.613 4.469 110 2 31.387-2.469 51.25-10.737 84-10 32.75.737 78.384 10.478 113 10 34.616-.478 58.214-11.174 88-10 29.786 1.174 65.762 14.22 104 17 38.238 2.78 78.74-4.703 109-9 30.26-4.297 50.278-5.407 80-6s69.146-.668 108 2 77.137 8.08 110 10 60.306.346 94 3 73.64 9.536 109 8c35.36-1.536 66.135-11.49 96-16 29.865-4.51 58.818-3.574 91-2 32.182 1.574 67.59 3.787 143 6l-40 210H0Z" fill="url(#q)"/><path d="M0 1260c38.235 1.973 76.47 3.945 110 1s62.358-10.808 92-12c29.642-1.192 60.099 4.288 91 5 30.901.712 62.247-3.342 95 0s66.914 14.081 102 13c35.086-1.081 71.098-13.982 104-21 32.902-7.018 62.696-8.154 95 0s67.12 25.599 104 24c36.88-1.599 75.828-22.24 108-24 32.172-1.76 57.57 15.364 92 19 34.43 3.636 77.89-6.216 113-8 35.11-1.784 61.87 4.501 91 9 29.13 4.499 60.627 7.212 93 3s65.622-15.35 101-22 72.884-8.813 108-1c35.116 7.813 67.843 25.602 99 25 31.157-.602 60.743-19.594 96-26 35.257-6.406 76.185-.225 112 3s66.519 3.493 98 5c31.481 1.507 63.74 4.254 136 7l-40 140H0Z" fill="url(#r)"/><path d="M0 1330c37.569 5.532 75.138 11.063 105 10 29.862-1.063 52.017-8.721 85-16s76.793-14.179 111-8c34.207 6.179 58.81 25.436 93 27s77.965-14.564 112-17 58.33 8.82 86 11c27.67 2.18 58.715-4.714 96-10s80.81-8.962 116-6c35.19 2.962 62.046 12.563 95 12 32.954-.563 72.008-11.291 108-14 35.992-2.709 68.924 2.602 102 7 33.076 4.398 66.296 7.883 98 7 31.704-.883 61.89-6.134 93-6 31.11.134 63.142 5.652 94 3 30.858-2.652 60.54-13.474 97-12 36.46 1.474 79.695 15.246 113 22 33.305 6.754 56.68 6.49 86 5 29.32-1.49 64.586-4.21 102-5s76.975.345 112-1c35.025-1.345 65.512-5.173 136-9l-40 70H0Z" fill="url(#s)"/></svg>
