<svg width="2000" height="1400" xmlns="http://www.w3.org/2000/svg"><defs><linearGradient id="a" gradientTransform="rotate(90)"><stop offset="5%" stop-color="#eff5f2"/><stop offset="95%" stop-color="#f3f7f5"/></linearGradient><linearGradient id="b" gradientTransform="rotate(90)"><stop offset="5%" stop-color="#edf5f1"/><stop offset="95%" stop-color="#f1f7f4"/></linearGradient><linearGradient id="c" gradientTransform="rotate(90)"><stop offset="5%" stop-color="#ecf6ef"/><stop offset="95%" stop-color="#f0f8f3"/></linearGradient><linearGradient id="d" gradientTransform="rotate(90)"><stop offset="5%" stop-color="#eaf7ed"/><stop offset="95%" stop-color="#eff9f1"/></linearGradient><linearGradient id="e" gradientTransform="rotate(90)"><stop offset="5%" stop-color="#e8f7ec"/><stop offset="95%" stop-color="#edf9f0"/></linearGradient><linearGradient id="f" gradientTransform="rotate(90)"><stop offset="5%" stop-color="#e6f8ea"/><stop offset="95%" stop-color="#ecf9ef"/></linearGradient><linearGradient id="g" gradientTransform="rotate(90)"><stop offset="5%" stop-color="#e4f8e8"/><stop offset="95%" stop-color="#eaf9ed"/></linearGradient><linearGradient id="h" gradientTransform="rotate(90)"><stop offset="5%" stop-color="#e3f9e7"/><stop offset="95%" stop-color="#eafaed"/></linearGradient><linearGradient id="i" gradientTransform="rotate(90)"><stop offset="5%" stop-color="#e1fae5"/><stop offset="95%" stop-color="#e8fbeb"/></linearGradient><linearGradient id="j" gradientTransform="rotate(90)"><stop offset="5%" stop-color="#e1f8e4"/><stop offset="95%" stop-color="#e8f9ea"/></linearGradient><linearGradient id="k" gradientTransform="rotate(90)"><stop offset="5%" stop-color="#e2f5e3"/><stop offset="95%" stop-color="#e9f7ea"/></linearGradient><linearGradient id="l" gradientTransform="rotate(90)"><stop offset="5%" stop-color="#e4f1e2"/><stop offset="95%" stop-color="#eaf4e9"/></linearGradient><linearGradient id="m" gradientTransform="rotate(90)"><stop offset="5%" stop-color="#e6ede1"/><stop offset="95%" stop-color="#ecf1e8"/></linearGradient><linearGradient id="n" gradientTransform="rotate(90)"><stop offset="5%" stop-color="#e7eae0"/><stop offset="95%" stop-color="#edefe7"/></linearGradient><linearGradient id="o" gradientTransform="rotate(90)"><stop offset="5%" stop-color="#e9e6df"/><stop offset="95%" stop-color="#eeece7"/></linearGradient><linearGradient id="p" gradientTransform="rotate(90)"><stop offset="5%" stop-color="#eae3de"/><stop offset="95%" stop-color="#efeae6"/></linearGradient><linearGradient id="q" gradientTransform="rotate(90)"><stop offset="5%" stop-color="#ecdfdd"/><stop offset="95%" stop-color="#f0e7e5"/></linearGradient><linearGradient id="r" gradientTransform="rotate(90)"><stop offset="5%" stop-color="#eddcdc"/><stop offset="95%" stop-color="#f1e4e4"/></linearGradient><linearGradient id="s" gradientTransform="rotate(90)"><stop offset="5%" stop-color="#efd8db"/><stop offset="95%" stop-color="#f3e1e4"/></linearGradient></defs><path fill="#f1f4f4" d="M0 0h2000v1400H0z"/><path d="M0 70c30.747-4.201 61.494-8.403 92-6 30.506 2.403 60.771 11.41 98 9s81.42-16.234 118-16c36.58.234 65.546 14.528 98 16 32.454 1.472 68.397-9.878 103-10 34.603-.122 67.868 10.986 101 14 33.132 3.014 66.133-2.064 99-6 32.867-3.936 65.601-6.729 97-5s61.463 7.98 96 7c34.537-.98 73.548-9.19 104-7 30.452 2.19 52.345 14.783 83 15 30.655.217 70.072-11.943 108-11 37.928.943 74.368 14.987 106 12 31.632-2.987 58.457-23.005 90-25 31.543-1.995 67.803 14.032 104 17s72.332-7.122 105-10c32.668-2.878 61.87 1.455 91 5 29.13 3.545 58.189 6.3 96 4s84.375-9.657 121-11 63.313 3.329 130 8l-40 1330H0Z" fill="url(#a)"/><path d="M0 140c27.989 1.438 55.978 2.876 91 6s77.077 7.933 115 3 71.713-19.61 104-20c32.287-.39 63.07 13.505 91 20 27.93 6.495 53.004 5.59 88 1s79.913-12.866 116-18 63.345-7.127 94 0 64.708 23.372 98 21 65.824-23.362 97-27c31.176-3.638 60.998 10.075 97 16 36.002 5.925 78.185 4.062 115 3 36.815-1.062 68.262-1.322 99-4s60.767-7.773 91-4c30.233 3.773 60.67 16.415 94 16 33.33-.415 69.554-13.887 105-17 35.446-3.113 70.114 4.133 101 10 30.886 5.867 57.99 10.356 94 6s80.926-17.557 118-24c37.074-6.443 66.307-6.126 97-3 30.693 3.126 62.847 9.063 135 15l-40 1260H0Z" fill="url(#b)"/><path d="M0 210c29.084-6.165 58.167-12.33 92-8s72.415 19.154 105 17c32.585-2.154 59.172-21.288 92-25 32.828-3.712 71.898 7.996 108 11 36.102 3.004 69.238-2.696 102-1 32.762 1.696 65.152 10.787 97 15 31.848 4.213 63.155 3.546 96 2 32.845-1.546 67.229-3.973 104-6s75.93-3.655 107-9c31.07-5.345 54.05-14.407 86-11 31.95 3.407 72.872 19.282 110 20s70.462-13.721 103-18 64.279 1.603 99 9c34.721 7.397 72.423 16.31 105 15 32.577-1.31 60.029-12.845 93-15 32.971-2.155 71.462 5.069 106 8s65.124 1.57 95-1c29.876-2.57 59.044-6.346 94-6 34.956.346 75.702 4.813 111 6 35.298 1.187 65.15-.907 135-3l-40 1190H0Z" fill="url(#c)"/><path d="M0 280c33.305-2.916 66.61-5.832 98-3s60.867 11.413 92 16c31.133 4.587 63.921 5.18 102-1s81.448-19.136 119-22c37.552-2.864 69.285 4.362 97 10 27.715 5.638 51.41 9.689 86 11s80.074-.118 116 0 62.295 1.782 92-4 62.746-19.01 99-21c36.254-1.99 75.72 7.26 109 11s60.372 1.97 90 0 61.79-4.141 96-1 70.465 11.594 107 16c36.535 4.406 73.35 4.765 107 1 33.65-3.765 64.134-11.654 95-16s62.113-5.15 97-2c34.887 3.15 73.413 10.257 106 11 32.587.743 59.235-4.877 90-7s65.647-.75 100 0c34.353.75 68.176.875 142 1l-40 1120H0Z" fill="url(#d)"/><path d="M0 350c37.72-7.315 75.438-14.63 109-14 33.562.63 62.967 9.208 95 10 32.033.792 66.695-6.201 100-5 33.305 1.201 65.251 10.596 97 12 31.749 1.404 63.299-5.183 95-3s63.554 13.134 96 10c32.446-3.134 65.486-20.355 100-21 34.514-.645 70.502 15.284 104 18 33.498 2.716 64.506-7.78 99-7 34.494.78 72.473 12.838 106 11 33.527-1.838 62.603-17.572 92-22 29.397-4.428 59.116 2.45 96 8s80.933 9.771 117 10c36.067.229 64.153-3.535 93-7 28.847-3.465 58.456-6.63 91-9s68.024-3.941 101-3c32.976.941 63.447 4.397 101 5 37.553.603 82.187-1.645 117 3s59.804 16.184 90 18c30.196 1.816 65.598-6.092 141-14l-40 1050H0Z" fill="url(#e)"/><path d="M0 420c28.698.968 57.397 1.936 95 0s84.111-6.774 116-9c31.889-2.226 49.158-1.838 78 4s69.258 17.125 106 16c36.742-1.125 69.812-14.664 102-22s63.495-8.47 99-2c35.505 6.47 75.206 20.54 110 21 34.794.46 64.679-12.694 95-16 30.321-3.306 61.08 3.237 94 8s68.005 7.747 102 3c33.995-4.747 66.901-17.226 102-19 35.099-1.774 72.39 7.156 105 11 32.61 3.844 60.54 2.603 91 1 30.46-1.603 63.45-3.568 102 0s82.66 12.669 113 15c30.34 2.331 46.909-2.107 79-1 32.091 1.107 79.705 7.76 118 5s67.272-14.936 96-17c28.728-2.064 57.208 5.982 90 8s69.896-1.99 147-6l-40 980H0Z" fill="url(#f)"/><path d="M0 490c28.856 4.512 57.712 9.025 89 7 31.288-2.025 65.008-10.586 101-11 35.992-.414 74.255 7.32 108 5 33.745-2.32 62.973-14.694 98-15 35.027-.306 75.854 11.458 111 12 35.146.542 64.61-10.136 97-10 32.39.136 67.704 11.087 101 11 33.296-.087 64.573-11.214 98-11 33.427.214 69.005 11.767 102 17 32.995 5.233 63.406 4.145 95-1s64.37-14.349 100-15c35.63-.651 74.112 7.25 109 14 34.888 6.75 66.182 12.348 96 8 29.818-4.348 58.16-18.642 91-17 32.84 1.642 70.178 19.222 102 21 31.822 1.778 58.13-12.244 92-18s75.306-3.244 110-2c34.694 1.244 62.648 1.22 93 1 30.352-.22 63.1-.634 98 0s71.95 2.317 149 4l-40 910H0Z" fill="url(#g)"/><path d="M0 560c27.356 1.91 54.711 3.821 89 2 34.289-1.821 75.511-7.374 114-5 38.489 2.374 74.243 12.676 105 14 30.757 1.324 56.516-6.33 90-10s74.693-3.355 108-5 58.713-5.25 89-7 65.455-1.643 99 4 65.468 16.823 99 17c33.532.177 68.672-10.65 106-18s76.843-11.223 110-7c33.157 4.223 59.957 16.542 93 21 33.043 4.458 72.33 1.056 104-5s55.721-14.765 86-15c30.279-.235 66.785 8.006 103 11 36.215 2.994 72.138.742 109 2 36.862 1.258 74.662 6.025 105 4 30.338-2.025 53.214-10.842 87-9 33.786 1.842 78.48 14.342 113 17 34.52 2.658 58.863-4.526 89-8s66.069-3.237 142-3l-40 840H0Z" fill="url(#h)"/><path d="M0 630c36.355-7.516 72.71-15.031 108-15 35.29.031 69.515 7.609 98 8s51.232-6.405 83-9c31.768-2.595 72.559-.99 107 2s62.533 7.362 97 13 75.308 12.54 110 14c34.692 1.46 63.234-2.526 99-9s78.756-15.438 109-16c30.244-.562 47.74 7.278 80 13s79.283 9.328 117 12c37.717 2.672 66.129 4.412 99 1 32.871-3.412 70.202-11.975 101-18 30.798-6.025 55.063-9.513 89-9 33.937.513 77.547 5.026 111 7 33.453 1.974 56.747 1.408 86 3s64.463 5.34 101 9c36.537 3.66 74.402 7.228 108 5 33.598-2.228 62.93-10.254 94-13 31.07-2.746 63.877-.213 98 1s69.561 1.107 145 1l-40 770H0Z" fill="url(#i)"/><path d="M0 700c29.938 5.882 59.877 11.765 95 9 35.123-2.765 75.431-14.177 110-18 34.569-3.823 63.399-.057 94 5s62.975 11.405 94 7c31.025-4.405 60.703-19.562 97-17 36.297 2.562 79.212 22.843 112 23 32.788.157 55.447-19.812 91-25 35.553-5.188 84 4.403 117 10s50.552 7.198 82 8c31.448.802 76.793.803 115 1 38.207.197 69.277.59 100-4s61.098-14.164 91-11c29.902 3.164 59.332 19.067 94 21 34.668 1.933 74.574-10.102 107-18s57.372-11.658 90-6c32.628 5.658 72.94 20.734 109 21 36.06.266 67.872-14.28 102-18 34.128-3.72 70.573 3.383 102 7 31.427 3.617 57.836 3.748 90 4 32.164.252 70.082.626 148 1l-40 700H0Z" fill="url(#j)"/><path d="M0 770c28.94-8.772 57.881-17.545 93-12 35.119 5.545 76.415 25.407 111 26 34.585.593 62.46-18.082 96-25 33.54-6.918 72.748-2.079 106 0 33.252 2.079 60.548 1.396 94 4s73.059 8.493 105 7c31.941-1.493 56.216-10.368 86-9 29.784 1.368 65.077 12.98 104 16 38.923 3.02 81.477-2.551 113-7 31.523-4.449 52.013-7.774 86-6s81.469 8.648 115 7c33.531-1.648 53.112-11.818 81-11 27.888.818 64.083 12.624 101 19 36.917 6.376 74.556 7.322 112 2s74.694-16.913 107-17c32.306-.087 59.668 11.33 88 12 28.332.67 57.635-9.408 94-12 36.365-2.592 79.79 2.302 114 1 34.21-1.302 59.203-8.8 90-9 30.797-.2 67.399 6.9 144 14l-40 630H0Z" fill="url(#k)"/><path d="M0 840c38.294 4.439 76.588 8.877 107 6 30.412-2.877 52.942-13.071 87-13 34.058.071 79.645 10.407 113 15 33.355 4.593 54.478 3.444 88-2s79.442-15.185 113-15c33.558.185 54.756 10.294 87 10 32.244-.294 75.536-10.991 110-12 34.464-1.009 60.099 7.67 91 12 30.901 4.33 67.068 4.31 103 3 35.932-1.31 71.63-3.913 103 0 31.37 3.913 58.415 14.34 93 10s76.71-23.449 109-30c32.29-6.551 54.746-.546 87 9s74.305 22.63 109 22c34.695-.63 62.035-14.978 94-24 31.965-9.022 68.554-12.719 104-6 35.446 6.719 69.748 23.852 105 29 35.252 5.148 71.452-1.691 102-5 30.548-3.309 55.442-3.088 87-4 31.558-.912 69.779-2.956 148-5l-40 560H0Z" fill="url(#l)"/><path d="M0 910c37.589-.636 75.177-1.272 108-1 32.823.272 60.88 1.453 94 1 33.12-.453 71.302-2.538 106-4 34.698-1.462 65.91-2.3 95-5 29.09-2.7 56.055-7.261 91-3s77.869 17.344 112 18c34.131.656 59.47-11.116 89-14 29.53-2.884 63.251 3.12 98 11s70.526 17.638 103 12c32.474-5.638 61.645-26.672 94-27 32.355-.328 67.894 20.048 105 24 37.106 3.952 75.78-8.52 110-13s63.988-.965 98 0 72.267-.62 108-2c35.733-1.38 68.943-2.557 99 0 30.057 2.557 56.96 8.848 90 14 33.04 5.152 72.217 9.164 107 3s65.172-22.506 98-28 68.094-.141 101 4c32.906 4.141 63.453 7.07 134 10l-40 490H0Z" fill="url(#m)"/><path d="M0 980c28.846 7.915 57.692 15.831 91 11 33.308-4.831 71.08-22.408 108-22 36.92.408 72.99 18.803 107 22 34.01 3.197 65.96-8.802 100-11 34.04-2.198 70.17 5.405 99 4 28.83-1.405 50.359-11.818 84-12 33.641-.182 79.395 9.867 116 8 36.605-1.867 64.063-15.65 94-14 29.937 1.65 62.353 18.736 95 23 32.647 4.264 65.526-4.293 103-12 37.474-7.707 79.543-14.564 113-12 33.457 2.564 58.302 14.547 90 16 31.698 1.453 70.25-7.626 105-6 34.75 1.626 65.7 13.956 94 18 28.3 4.044 53.948-.2 90-4s82.508-7.16 120-12c37.492-4.84 66.018-11.163 93-7s52.418 18.813 87 18c34.582-.813 78.31-17.09 115-21s66.345 4.545 136 13l-40 420H0Z" fill="url(#n)"/><path d="M0 1050c29.187 2.117 58.374 4.234 91 3s68.691-5.82 102-5c33.309.82 63.86 7.047 96 10 32.14 2.953 65.866 2.631 102-2s74.675-13.572 111-16c36.325-2.428 70.436 1.658 103 2 32.564.342 63.583-3.06 96-4s66.233.585 98-1c31.767-1.585 61.484-6.28 94-2s67.83 17.532 104 17 73.199-14.85 104-17c30.801-2.15 55.376 7.869 90 9 34.624 1.131 79.298-6.624 115-7 35.702-.376 62.432 6.628 93 6 30.568-.628 64.975-8.887 100-7 35.025 1.887 70.67 13.92 101 20s55.346 6.207 90 0 78.945-18.748 117-19c38.055-.252 69.873 11.785 101 16 31.127 4.215 61.564.607 132-3l-40 350H0Z" fill="url(#o)"/><path d="M0 1120c35.196 3.53 70.392 7.058 102 7 31.608-.058 59.629-3.704 93-9 33.371-5.296 72.093-12.242 107-7 34.907 5.242 66 22.673 97 24 31 1.327 61.91-13.45 98-20 36.09-6.55 77.363-4.87 112 1s62.638 15.934 91 12c28.362-3.934 57.084-21.865 91-21 33.916.865 73.024 20.527 110 27 36.976 6.473 71.818-.242 107-4s70.702-4.558 100-4c29.298.558 52.373 2.473 85-1s74.804-12.334 111-14c36.196-1.666 66.41 3.863 95 10 28.59 6.137 55.558 12.881 91 13 35.442.119 79.359-6.388 115-10 35.641-3.612 63.007-4.329 93-7 29.993-2.671 62.614-7.296 95-3s64.539 17.513 99 20c34.461 2.487 71.23-5.757 148-14l-40 280H0Z" fill="url(#p)"/><path d="M0 1190c32.836.76 65.672 1.519 98 1 32.328-.519 64.148-2.316 96-5 31.852-2.684 63.735-6.253 98-6 34.265.253 70.913 4.33 104 8s62.612 6.936 94 5c31.388-1.936 64.64-9.073 100-10 35.36-.927 72.83 4.357 111 7s77.037 2.645 106 5c28.963 2.355 48.02 7.062 82 5 33.98-2.062 82.882-10.893 118-17 35.118-6.107 56.45-9.491 88-8 31.55 1.491 73.314 7.857 108 8 34.686.143 62.292-5.937 92-6 29.708-.063 61.517 5.892 95 13s68.64 15.37 101 11c32.36-4.37 61.922-21.373 99-24 37.078-2.627 81.67 9.12 119 16 37.33 6.88 67.396 8.89 96 8 28.604-.89 55.744-4.683 88-7s69.628-3.158 147-4l-40 210H0Z" fill="url(#q)"/><path d="M0 1260c32.628-2.14 65.257-4.279 101 0 35.743 4.279 74.602 14.976 108 15 33.398.024 61.335-10.627 94-13 32.665-2.373 70.06 3.53 102 6 31.94 2.47 58.427 1.506 87 0s59.232-3.555 96-2c36.768 1.555 79.645 6.714 119 1 39.355-5.714 75.189-22.3 104-20 28.811 2.3 50.6 23.485 80 28 29.4 4.515 66.409-7.64 106-13 39.591-5.36 81.764-3.927 113-3 31.236.927 51.534 1.346 82 5s71.101 10.543 107 5c35.899-5.543 67.062-23.518 99-25 31.938-1.482 64.653 13.527 100 16 35.347 2.473 73.328-7.592 104-9 30.672-1.408 54.036 5.839 87 11s75.529 8.236 109 5c33.471-3.236 57.849-12.782 90-15s72.076 2.89 152 8l-40 140H0Z" fill="url(#r)"/><path d="M0 1330c36.547 3.501 73.094 7.003 107 10 33.906 2.997 65.172 5.49 98 2s67.218-12.965 101-18 66.956-5.63 100-4 65.956 5.485 100 7c34.044 1.515 69.218.691 104-2s69.172-7.249 99-8c29.828-.751 55.095 2.303 88 7s73.446 11.035 105 13c31.554 1.965 54.119-.442 88 1s79.078 6.734 118 4 71.57-13.495 101-14c29.43-.505 55.642 9.245 88 8 32.358-1.245 70.861-13.484 106-12 35.139 1.484 66.913 16.692 100 16 33.087-.692 67.487-17.285 101-22 33.513-4.715 66.137 2.448 96 11s56.963 18.495 90 15c33.037-3.495 72.01-20.427 108-25 35.99-4.573 68.995 3.214 142 11l-40 70H0Z" fill="url(#s)"/></svg>
