<svg enable-background="new 0 0 1999.44 1999.44" viewBox="0 0 1999.44 1999.44" xmlns="http://www.w3.org/2000/svg" xmlns:xlink="http://www.w3.org/1999/xlink"><linearGradient id="a"><stop offset="0" stop-color="#3fb4e4"/><stop offset=".2108" stop-color="#3fb4e4"/><stop offset=".8096" stop-color="#2086b0"/><stop offset="1" stop-color="#2086b0"/></linearGradient><linearGradient id="b" gradientTransform="matrix(-6.3777 40.2675 40.2675 6.3777 -79086.4844 -12117.9922)" gradientUnits="userSpaceOnUse" x1="-10.9608" x2="-7.0929" xlink:href="#a" y1="1987.4894" y2="1987.4894"/><linearGradient id="c" gradientTransform="matrix(-6.3777 40.2675 40.2675 6.3777 -78893.4844 -11969.9922)" gradientUnits="userSpaceOnUse" x1="-2.8018" x2="1.0661" xlink:href="#a" y1="2002.5275" y2="2002.5275"/><linearGradient id="d" gradientTransform="matrix(-6.3777 40.2674 40.2674 6.3777 -79004.5703 -11892.9795)" gradientUnits="userSpaceOnUse" x1="3.7714" x2="7.6394" xlink:href="#a" y1="1995.6562" y2="1995.6562"/><linearGradient id="e" gradientTransform="matrix(-8.3557 52.756 52.756 8.3557 -104058.1562 -15682.4805)" gradientUnits="userSpaceOnUse" x1="13.2655" x2="17.1335" xlink:href="#a" y1="1994.0232" y2="1994.0232"/><linearGradient id="f" gradientTransform="matrix(-8.3557 52.756 52.756 8.3557 -104248.0312 -15959.0039)" gradientUnits="userSpaceOnUse" x1=".1958" x2="4.0638" xlink:href="#a" y1="1981.6305" y2="1981.6305"/><path d="m305.19 724.17.02-.01c1.58-.86 80.36-43.49 205.15-85.77 124.79-42.3 295.58-84.17 480.93-84.16h.11c197.4.01 357.21 39.69 477.49 86.55 120.27 46.87 200.91 100.95 239.56 129.77l27.75-37.21c-41.19-30.72-125.48-87.11-250.46-135.81-124.96-48.71-290.69-89.73-494.34-89.72h-.12c-193.85.04-370.44 43.9-498.84 87.64-128.39 43.77-208.63 87.5-209.49 87.97z" fill="#13cbe8"/><path d="m1016.51 234.32c.66.77 35.88 42.43 80.88 110.46 45.01 68.01 99.77 162.43 139.66 268.31 46.66 123.75 63.4 252.89 63.39 370.73 0 84.37-8.57 162.91-20.68 229.29-14.39 78.91-41.99 166.39-83.31 253.43-41.31 87.06-96.32 173.69-165.35 251.28l34.68 30.85c72.29-81.26 129.56-171.55 172.6-262.23 43.03-90.7 71.85-181.78 87.04-265 12.57-68.92 21.43-150.11 21.44-237.62-.01-122.19-17.27-256.78-66.37-387.1-41.96-111.29-98.94-209.02-145.47-279.2-46.54-70.16-82.68-112.72-83.13-113.25z" fill="#13cbe8"/><path d="m306.71 759.12.31-.94-.31.94.31-.94-.31.94c1 .33 68.46 22.88 162.27 76.54 93.83 53.65 213.93 138.39 320.68 262.8l.1.12.14.16c82.9 93.54 134.87 195.66 166.18 292.72 31.3 97.02 41.85 188.99 41.84 261.24.01 44-3.94 80.75-9.2 106.25l45.46 9.36c6.05-29.46 10.14-68.83 10.16-115.61-.01-76.7-11.1-173.19-44.08-275.48-32.97-102.26-87.94-210.34-175.62-309.26l-17.37 15.39 17.61-15.11c-112.07-130.58-237.57-218.62-335.14-274.18-97.6-55.55-167.37-78.64-168.48-79.02z" fill="#13cbe8"/><path d="m1463.65 618.83c-138.72-54.67-191.44-60.09-204.08-51.03l15.7 15.46c72.99 15.43 137.61 35.69 193.63 57.53 120.27 46.87 200.91 100.95 239.56 129.77l14.98-20.09c-39.36-24.7-139.08-84.06-259.79-131.64z" fill="#0fa2b9"/><path d="m1212.67 514.68c-3.9-18.2-12.35-37.69-66.29-121.53-44.08-68.51-99-143.94-117.6-169.24l-12.26 10.42v.01c.65.77 35.87 42.42 80.88 110.45 31.69 47.88 68.19 108.89 100.95 177.73 11.02 7.81 18.22 10.35 14.32-7.84z" fill="#0fa2b9"/><path d="m1018.75 1686.09c.19-56.87-4.07-194.12-44.81-311.78-52.9-152.75-128.95-255.91-260.54-381.55-123.21-117.64-295.1-221.35-399.55-255.26l-7.14 21.62c1.03.34 68.48 22.89 162.27 76.54 93.83 53.65 213.93 138.39 320.68 262.8l.1.12.14.16c82.9 93.54 134.87 195.66 166.18 292.72 31.3 97.02 41.85 188.99 41.84 261.24 0 12.48-.32 24.35-.89 35.57 5.72-1.38 12.95-2.36 21.72-2.18z" fill="#0fa1b8"/><path d="m1313.83 849.92c-13.23-120.35-63.48-249.96-72.08-269.14s-5.95-23.81-21.16-26.55c-226.81-29.09-373.62-25.03-595.8 30.52-182.21 45.55-295.39 101.3-330.24 119.9l10.65 19.52.02-.01c.4-.22 5.83-3.15 15.71-8.09l1.37-.68c29.67-14.75 96.44-45.96 188.08-77 124.79-42.3 295.58-84.17 480.93-84.16h.11c83.3 0 159.87 7.09 229.64 18.78 5.54 13.15 10.9 26.51 16.01 40.07 46.66 123.75 63.4 252.89 63.39 370.73 0 84.37-8.57 162.91-20.68 229.29-14.39 78.91-41.99 166.39-83.31 253.43-36.81 77.58-84.53 154.8-143.32 225.6 8.43 3.31 13.83 8.72 19.71 15.23 2.32-2.78 4.93-5.99 7.88-9.7 12.83-16.18 139.69-182.48 194.12-361.98 22.09-68.5 40.49-225.82 43.73-289.25 3.43-67.59 2.06-134.42-4.76-196.51z" fill="#0fa7bf"/><circle cx="1002.22" cy="194.21" fill="#27a2d5" r="78.83"/><path d="m1002.22 134.71c32.81 0 59.5 26.69 59.5 59.5s-26.69 59.5-59.5 59.5-59.5-26.69-59.5-59.5 26.69-59.5 59.5-59.5m0-19.34c-43.54 0-78.83 35.3-78.83 78.83 0 43.54 35.3 78.83 78.83 78.83 43.54 0 78.83-35.3 78.83-78.83s-35.29-78.83-78.83-78.83z" fill="url(#b)"/><circle cx="1748.73" cy="766.66" fill="#27a2d5" r="78.83"/><path d="m1748.73 707.16c32.81 0 59.5 26.69 59.5 59.5s-26.69 59.5-59.5 59.5-59.5-26.69-59.5-59.5 26.69-59.5 59.5-59.5m0-19.34c-43.54 0-78.83 35.3-78.83 78.83 0 43.54 35.3 78.83 78.83 78.83 43.54 0 78.83-35.3 78.83-78.83s-35.29-78.83-78.83-78.83z" fill="url(#c)"/><circle cx="1319.03" cy="1064.53" fill="#27a2d5" r="78.83"/><path d="m1319.03 1005.04c32.81 0 59.5 26.69 59.5 59.5s-26.69 59.5-59.5 59.5-59.5-26.69-59.5-59.5 26.69-59.5 59.5-59.5m0-19.34c-43.54 0-78.83 35.3-78.83 78.83 0 43.54 35.3 78.83 78.83 78.83 43.54 0 78.83-35.3 78.83-78.83 0-43.54-35.29-78.83-78.83-78.83z" fill="url(#d)"/><circle cx="1011.46" cy="1780.89" fill="#27a2d5" r="103.28"/><path d="m1011.46 1696.95c46.29 0 83.95 37.66 83.95 83.94 0 46.29-37.66 83.95-83.95 83.95s-83.95-37.66-83.95-83.95 37.66-83.94 83.95-83.94m0-19.34c-57.04 0-103.28 46.24-103.28 103.28s46.24 103.28 103.28 103.28 103.28-46.24 103.28-103.28-46.24-103.28-103.28-103.28z" fill="url(#e)"/><circle cx="276.99" cy="711.31" fill="#27a2d5" r="103.28"/><path d="m276.99 627.36c46.29 0 83.95 37.66 83.95 83.95s-37.66 83.95-83.95 83.95-83.95-37.66-83.95-83.95 37.66-83.95 83.95-83.95m0-19.33c-57.04 0-103.28 46.24-103.28 103.28s46.24 103.28 103.28 103.28 103.28-46.24 103.28-103.28-46.24-103.28-103.28-103.28z" fill="url(#f)"/><path d="m300.53 557.18 11.12-3.71-11.12 3.71c20.89 3.21 40.94 10.66 58.84 21.87l-.6-4.97.6 4.97c57.81-88.74 134.67-165.77 223.34-223.66 89.09-58.16 190.87-97.36 295.86-114.15 0 0-6.11-1.23-6.86-1.23.75 0 6.86 1.23 6.86 1.23-5.19-14.34-7.88-29.57-7.88-45.07 0-5.39.32-10.75.96-16.04l-4.26 4.26 4.26-4.26c-118.06 18.43-232.11 62.99-331.42 129.71-95.93 64.44-178.27 149.51-239.7 247.34z" fill="#00a094"/><path d="m540.25 309.83c99.31-66.71 213.36-111.28 331.42-129.71l25.3-23.02c-269.79 32.6-500.32 192.54-629.74 417.96l33.3-17.89c61.43-97.82 143.77-182.89 239.72-247.34z" fill="#04aa9f"/><path d="m582.72 355.38c-88.67 57.89-165.53 134.93-223.34 223.66l5.32 27.78c115.58-188.72 313.03-321.89 542.9-350.16l-29.02-15.43c-104.99 16.79-206.77 55.99-295.86 114.15z" fill="#008a80"/><path d="m236.4 994.54c0 183.06 65.81 360.07 185.31 498.42 113.35 131.23 267.86 219.98 437.07 251.55l25.03-15.33c-355.81-55.5-628.07-363.24-628.07-734.63 0-50.67 5.07-100.18 14.74-147.99l-22.82 16.73c-7.47 43.1-11.26 87.15-11.26 131.25z" fill="#1ab2a7"/><path d="m421.71 1492.96c-119.5-138.35-185.31-315.36-185.31-498.42 0-44.1 3.78-88.15 11.26-131.25l-8.51 8.73 8.51-8.73c-20.88-3.97-40.57-12.16-58.03-24.08l5.22 18.15-5.22-18.15c-9.7 51.03-14.61 103.13-14.61 155.33 0 200.36 72.75 393.5 204.86 543.83 124.39 141.56 292.84 236.04 476.97 268.14l-20.91-14.13 20.91 14.13c-1.44-8.6-2.16-17.34-2.16-26.17 0-12.17 1.37-24.16 4.1-35.84l-17.73 9.68 17.73-9.68c-169.21-31.56-323.73-120.31-437.08-251.54z" fill="#00a094"/><path d="m379.88 1538.37c-132.1-150.33-204.86-343.47-204.86-543.83 0-52.2 4.91-104.3 14.61-155.33l-12.21-35.86c-14.2 61.42-21.74 125.44-21.74 191.19 0 426.55 316.59 779.15 727.59 835.66l-26.42-23.69c-184.13-32.1-352.58-126.58-476.97-268.14z" fill="#008279"/><path d="m1496.5 337.11c103.35 78.3 187.16 180.22 243.83 296.16l31.06 20.93c-116.62-264.14-364.78-457.19-661.45-496.06l25.1 23.28c130.85 21.73 255.29 75.25 361.46 155.69z" fill="#1ab2a7"/><path d="m1735.72 630.37c1.04.62 4.61 2.9 4.61 2.9-56.67-115.94-140.48-217.86-243.83-296.16-106.18-80.44-230.61-133.96-361.47-155.69l8.25 10.2-8.25-10.2c.54 4.87.81 9.79.81 14.74 0 15.97-2.84 31.63-8.33 46.32l8.97-2.98-8.97 2.98c118.03 20.04 230.56 68.1 326.93 139.86 95.46 71.08 173.49 164.09 226.79 270.01l2.75-7.44-2.75 7.44c17.84-10.94 38.06-17.5 59.1-19.09 0 .01-3.57-2.26-4.61-2.89z" fill="#00a094"/><path d="m1762.1 994.54c0-32.3-2.04-64.7-6.07-96.62l-22.44-20.46c6.03 38.14 9.17 77.24 9.17 117.08 0 362.81-259.85 664.93-603.55 730.38l25.54 14.49c347.46-76.76 597.35-386.48 597.35-744.87z" fill="#00897f"/><path d="m1829.83 846.09-14.09 34.75c5.17 37.46 7.78 75.57 7.78 113.7 0 99.62-17.57 196.98-52.23 289.39-33.48 89.28-81.94 171.55-144.03 244.51-118.74 139.52-280.67 235.68-458.54 272.91l-25.65 24.57c397.39-68.23 699.78-414.49 699.78-831.37.02-50.68-4.43-100.27-13.02-148.46z" fill="#0bada1"/><path d="m1764.47 906.81-8.43-8.9c4.03 31.92 6.07 64.32 6.07 96.62 0 358.39-249.9 668.11-597.35 744.87l17.41 11.36-17.41-11.36c3.57 13.26 5.36 26.96 5.36 40.94 0 7.06-.46 14.07-1.39 21 0 0 10.02-16.12 11.04-18.16-1.02 2.05-11.04 18.16-11.04 18.16 177.87-37.23 339.8-133.38 458.54-272.91 62.09-72.96 110.55-155.22 144.03-244.51 34.66-92.41 52.23-189.77 52.23-289.39 0-38.13-2.61-76.25-7.78-113.7l-10.56 25.98 10.56-25.98c-18.12 10.31-38.48 16.19-59.71 17.08z" fill="#00a094"/><g fill="#008178"><path d="m896.97 157.1-25.3 23.02c-.64 5.29-.96 10.65-.96 16.04 0 15.5 2.69 30.73 7.88 45.07l29.02 15.43c-11.14-17.48-17.56-38.25-17.56-60.49-.01-13.74 2.43-26.89 6.92-39.07z"/><path d="m300.53 557.18-33.3 17.89c3.21-.23 6.46-.35 9.75-.35 33.46 0 64.05 12.07 87.72 32.1l-5.32-27.78c-17.91-11.21-37.95-18.65-58.85-21.86z"/><path d="m247.66 863.29 22.82-16.73c-36.71-1.74-69.58-17.99-93.06-43.2l12.21 35.86c17.46 11.91 37.15 20.09 58.03 24.07z"/><path d="m858.79 1744.51c-2.72 11.68-4.1 23.67-4.1 35.84 0 8.83.72 17.56 2.16 26.17l26.42 23.69c-5.96-15.47-9.24-32.3-9.24-49.86 0-18.06 3.48-35.35 9.79-51.17z"/><path d="m1815.74 880.84 14.09-34.75c-20.42 20.15-48.5 32.61-79.45 32.61-5.69 0-11.29-.43-16.79-1.24l22.44 20.46c21.24-.89 41.6-6.77 59.71-17.08z"/><path d="m1170.12 1780.35c0-13.98-1.8-27.68-5.36-40.94l-25.54-14.49c7.43 16.94 11.57 35.7 11.57 55.43 0 15.97-2.71 31.29-7.7 45.56l25.65-24.57c.91-6.92 1.38-13.93 1.38-20.99z"/><path d="m1135.85 196.16c0-4.95-.27-9.87-.81-14.74l-25.1-23.28c4.26 11.87 6.58 24.68 6.58 38.02 0 22.67-6.65 43.78-18.18 61.46l29.19-15.14c5.48-14.69 8.32-30.34 8.32-46.32z"/><path d="m1681.23 652.36-7.2 29.53c20.11-18.41 46.96-29.67 76.35-29.67 7.19 0 14.19.66 21 1.97l-31.06-20.93c-21.03 1.6-41.25 8.16-59.09 19.1z"/></g><path d="m1674.03 681.9 7.2-29.53c-53.29-105.93-131.33-198.93-226.79-270.01-96.37-71.76-208.9-119.83-326.93-139.86l-29.19 15.14c256.07 34.06 470.89 198.45 575.71 424.26z" fill="#008379"/></svg>
