<svg xmlns="http://www.w3.org/2000/svg" viewBox="0 0 512 512">
  <path fill="#4a4a6a" d="M0 272L0 432l73.9 0-4.6-4.1L56.1 416l13.2-11.9 80-72 11.9-10.7 21.4 23.8-11.9 10.7-49 44.1L480 400l0-144 0-16 32 0 0-160-73.9 0 4.6 4.1L455.9 96l-13.2 11.9-80 72-11.9 10.7-21.4-23.8 11.9-10.7 49-44.1L32 112l0 144 0 16L0 272z"/>
  <path fill="#1a1a2e" d="M0 272l0-16L0 96 0 80l16 0 374.3 0-49-44.1L329.4 25.2 350.8 1.4l11.9 10.7 80 72L455.9 96l-13.2 11.9-80 72-11.9 10.7-21.4-23.8 11.9-10.7 49-44.1L32 112l0 144 0 16L0 272zm512-32l0 16 0 160 0 16-16 0-374.3 0 49 44.1 11.9 10.7-21.4 23.8-11.9-10.7-80-72L56.1 416l13.2-11.9 80-72 11.9-10.7 21.4 23.8-11.9 10.7-49 44.1L480 400l0-144 0-16 32 0z"/>
</svg>