<svg xmlns="http://www.w3.org/2000/svg" viewBox="0 0 640 512">
  <path fill="#4a4a6a" d="M32 32l0 448 96 0 0-80 0-32 32 0 64 0 32 0 0 32 0 80 96 0 0-10.8c-20.2-28.9-32-63.8-32-101.5s11.8-72.6 32-101.2L352 32 32 32zM64 96l16 0 64 0 16 0 0 16 0 64 0 16-16 0-64 0-16 0 0-16 0-64 0-16zm0 128l16 0 64 0 16 0 0 16 0 64 0 16-16 0-64 0-16 0 0-16 0-64 0-16zM224 96l16 0 64 0 16 0 0 16 0 64 0 16-16 0-64 0-16 0 0-16 0-64 0-16zm0 128l16 0 64 0 16 0 0 16 0 64 0 16-16 0-64 0-16 0 0-16 0-64 0-16zM352 469.2c4.7 6.7 9.9 13.1 15.5 19.1c-5.6-6.2-10.8-12.6-15.5-19.1z"/>
  <path fill="#1a1a2e" d="M32 32l320 0 0 234.8c9.1-12.9 19.9-24.5 32-34.6L384 32l0-32L352 0 32 0 0 0 0 32 0 480l0 32 32 0 96 0 32 0 64 0 32 0 96 0 32 0 0-8.2c-12.1-10-22.9-21.7-32-34.6l0 10.8-96 0 0-80 0-32-32 0-64 0-32 0 0 32 0 80-96 0L32 32zM160 480l0-80 64 0 0 80-64 0zM64 96l0 16 0 64 0 16 16 0 64 0 16 0 0-16 0-64 0-16-16 0L80 96 64 96zm32 32l32 0 0 32-32 0 0-32zM240 96l-16 0 0 16 0 64 0 16 16 0 64 0 16 0 0-16 0-64 0-16-16 0-64 0zm16 64l0-32 32 0 0 32-32 0zM64 224l0 16 0 64 0 16 16 0 64 0 16 0 0-16 0-64 0-16-16 0-64 0-16 0zm32 32l32 0 0 32-32 0 0-32zm144-32l-16 0 0 16 0 64 0 16 16 0 64 0 16 0 0-16 0-64 0-16-16 0-64 0zm16 64l0-32 32 0 0 32-32 0zm240-32a112 112 0 1 1 0 224 112 112 0 1 1 0-224zm0 256a144 144 0 1 0 0-288 144 144 0 1 0 0 288zm78.6-176L552 313.4l-11.3 11.3L480 385.4l-28.7-28.7L440 345.4 417.4 368l11.3 11.3 40 40L480 430.6l11.3-11.3 72-72L574.6 336z"/>
</svg>