<svg xmlns="http://www.w3.org/2000/svg" viewBox="0 0 448 512">
  <path fill="#4a4a6a" d="M0 192L0 320l16 0 128 0 16 0 0 16 0 128 0 16 128 0 0-16 0-128 0-16 16 0 128 0 16 0 0-128-16 0-128 0-16 0 0-16 0-128 0-16L160 32l0 16 0 128 0 16-16 0L16 192 0 192z"/>
  <path fill="#1a1a2e" d="M160 48l0-16-32 0 0 16 0 112L16 160 0 160l0 32 16 0 128 0 16 0 0-16 0-128zM16 320L0 320l0 32 16 0 112 0 0 112 0 16 32 0 0-16 0-128 0-16-16 0L16 320zM320 48l0-16-32 0 0 16 0 128 0 16 16 0 128 0 16 0 0-32-16 0-112 0 0-112zM304 320l-16 0 0 16 0 128 0 16 32 0 0-16 0-112 112 0 16 0 0-32-16 0-128 0z"/>
</svg>