<svg xmlns="http://www.w3.org/2000/svg" viewBox="0 0 448 512">
  <path fill="#4a4a6a" d="M0 192L0 320l32 0 0 16 0 112 112 0 16 0 0 32 128 0 0-32 16 0 112 0 0-112 0-16 32 0 0-128-32 0 0-16 0-112L304 64l-16 0 0-32L160 32l0 32-16 0L32 64l0 112 0 16L0 192z"/>
  <path fill="#1a1a2e" d="M144 32l16 0 0 32-16 0L32 64l0 112 0 16L0 192l0-16L0 48 0 32l16 0 128 0zM0 336l0-16 32 0 0 16 0 112 112 0 16 0 0 32-16 0L16 480 0 480l0-16L0 336zM432 32l16 0 0 16 0 128 0 16-32 0 0-16 0-112L304 64l-16 0 0-32 16 0 128 0zM416 336l0-16 32 0 0 16 0 128 0 16-16 0-128 0-16 0 0-32 16 0 112 0 0-112z"/>
</svg>