<svg xmlns="http://www.w3.org/2000/svg" viewBox="0 0 512 512">
  <path fill="#4a4a6a" d="M32 64l448 0 0 192L32 256 32 64zm0 224l448 0 0 160L32 448l0-160zm264 80a24 24 0 1 0 48 0 24 24 0 1 0 -48 0zm96 0a24 24 0 1 0 48 0 24 24 0 1 0 -48 0z"/>
  <path fill="#1a1a2e" d="M32 64l0 192 448 0 0-192L32 64zm0 224l0 160 448 0 0-160L32 288zM0 256L0 64 0 32l32 0 448 0 32 0 0 32 0 192 0 32 0 160 0 32-32 0L32 480 0 480l0-32L0 288l0-32zm320 88a24 24 0 1 1 0 48 24 24 0 1 1 0-48zm72 24a24 24 0 1 1 48 0 24 24 0 1 1 -48 0z"/>
</svg>