<?xml version="1.0" encoding="UTF-8" standalone="no"?>
<svg
   xmlns:dc="http://purl.org/dc/elements/1.1/"
   xmlns:cc="http://creativecommons.org/ns#"
   xmlns:rdf="http://www.w3.org/1999/02/22-rdf-syntax-ns#"
   xmlns:svg="http://www.w3.org/2000/svg"
   xmlns="http://www.w3.org/2000/svg"
   xmlns:xlink="http://www.w3.org/1999/xlink"
   version="1.1"
   id="svg2"
   viewBox="0 0 128 128"
   height="256"
   width="128">
  <defs id="defs4">
  <symbol id="folder" viewBox="0 0 128 128">
    <path d="m 15.15625,24.171702 c -4.09346,0 -7.40625,3.312788 -7.40625,7.40625 l 0,13.125 0,11.21875 0,40.515798 c 0,4.09346 3.31279,7.37501 7.40625,7.37501 l 97.6875,0 c 4.09346,0 7.40625,-3.28155 7.40625,-7.37501 l 0,-51.734548 c 0,-4.093462 -3.31287,-7.34985 -7.40625,-7.375 l -59.42358,0 0,-5.75 c 0,-4.093462 -3.28154,-7.40625 -7.375,-7.40625 z"/>
  </symbol>
  <symbol id="blank-file" viewBox="0 0 128 128">
    <path d="m 29.093731,11.235622 c -3.18381,0 -5.71875,2.566196 -5.71875,5.75 l 0,94.028788 c 0,3.1838 2.53494,5.75 5.71875,5.75 l 69.8125,0 c 3.183799,0 5.718749,-2.5662 5.718749,-5.75 l 0,-70.653788 -21.031249,0 c -4.30611,0 -8.0625,-3.141109 -8.0625,-7.3125 l 0,-21.8125 z m 50.4375,0 0,21.8125 c 0,1.714122 1.63197,3.3125 4.0625,3.3125 l 21.031249,0 z"/>
  </symbol>
  <symbol id="binary-file" viewBox="0 0 128 128">
    <path d="m 29.09375,11.234375 c -3.183804,0 -5.71875,2.566196 -5.71875,5.75 l 0,94.031255 c 0,3.1838 2.534946,5.75 5.71875,5.75 l 69.8125,0 c 3.1838,0 5.71875,-2.5662 5.71875,-5.75 l 0,-70.656255 -21.03125,0 c -4.306108,0 -8.0625,-3.141109 -8.0625,-7.3125 l 0,-21.8125 -46.4375,0 z m 50.4375,0 0,21.8125 c 0,1.714122 1.631968,3.3125 4.0625,3.3125 l 21.03125,0 -25.09375,-25.125 z m -32.25,39.6875 c 2.081981,2.2e-5 3.702035,0.733031 4.875,2.21875 1.397754,1.759447 2.093735,4.705254 2.09375,8.78125 -1.5e-5,4.066243 -0.686221,6.971025 -2.09375,8.75 -1.163191,1.466191 -2.793019,2.187499 -4.875,2.1875 -2.091772,-10e-7 -3.782031,-0.771964 -5.0625,-2.375 -1.280476,-1.612806 -1.937502,-4.50011 -1.9375,-8.625 -2e-6,-4.046673 0.717454,-6.971004 2.125,-8.75 1.163173,-1.466171 2.793003,-2.187478 4.875,-2.1875 z m 16.9375,0 3.34375,0 0,21.59375 -4.125,0 0,-15.53125 c -1.505296,1.407558 -3.269611,2.450565 -5.3125,3.125 l 0,-3.75 c 1.075204,-0.351869 2.239071,-1.022522 3.5,-2 1.260917,-0.987216 2.124561,-2.127682 2.59375,-3.4375 z m 16.5,0 c 2.081981,2.2e-5 3.702035,0.733031 4.875,2.21875 1.397754,1.759447 2.093735,4.705254 2.09375,8.78125 -1.5e-5,4.066243 -0.717471,6.971025 -2.125,8.75 -1.16319,1.466191 -2.761769,2.187499 -4.84375,2.1875 -2.091772,-10e-7 -3.782031,-0.771964 -5.0625,-2.375 -1.280475,-1.612806 -1.937501,-4.50011 -1.9375,-8.625 -10e-7,-4.046673 0.717455,-6.971004 2.125,-8.75 1.163174,-1.466171 2.793003,-2.187478 4.875,-2.1875 z m -33.4375,3.40625 c -0.498513,1.8e-5 -0.952773,0.177456 -1.34375,0.5 -0.390991,0.312805 -0.691215,0.86645 -0.90625,1.6875 -0.28347,1.065447 -0.437505,2.884415 -0.4375,5.40625 -5e-6,2.521857 0.152105,4.239369 0.40625,5.1875 0.254134,0.938366 0.556284,1.562217 0.9375,1.875 0.390977,0.312791 0.845237,0.468753 1.34375,0.46875 0.498496,3e-6 0.921507,-0.155959 1.3125,-0.46875 0.390974,-0.322558 0.722448,-0.897679 0.9375,-1.71875 0.283452,-1.055652 0.406239,-2.821893 0.40625,-5.34375 -1.1e-5,-2.521835 -0.120871,-4.280373 -0.375,-5.21875 -0.25415,-0.94812 -0.577775,-1.562195 -0.96875,-1.875 -0.381219,-0.322544 -0.814004,-0.499982 -1.3125,-0.5 z m 33.4375,0 c -0.498512,1.8e-5 -0.952773,0.177456 -1.34375,0.5 -0.390991,0.312805 -0.691215,0.86645 -0.90625,1.6875 -0.283469,1.065447 -0.437506,2.884415 -0.4375,5.40625 -6e-6,2.521857 0.120855,4.239369 0.375,5.1875 0.254134,0.938366 0.587533,1.562217 0.96875,1.875 0.390977,0.312791 0.845238,0.468753 1.34375,0.46875 0.498497,3e-6 0.921507,-0.155959 1.3125,-0.46875 0.390975,-0.322558 0.691198,-0.897679 0.90625,-1.71875 0.283453,-1.055652 0.437489,-2.821893 0.4375,-5.34375 -1.1e-5,-2.521835 -0.120871,-4.280373 -0.375,-5.21875 -0.254151,-0.94812 -0.577775,-1.562195 -0.96875,-1.875 -0.381218,-0.322544 -0.814003,-0.499982 -1.3125,-0.5 z m -33.21875,26.625 3.34375,0 0,21.593755 -4.125,0 0,-15.531255 c -1.505295,1.407557 -3.269612,2.450565 -5.3125,3.125 l 0,-3.75 c 1.075203,-0.35187 2.239071,-1.022522 3.5,-2 1.260917,-0.987217 2.124561,-2.127683 2.59375,-3.4375 z m 16.5,0 c 2.081981,2.1e-5 3.702035,0.733031 4.875,2.21875 1.397754,1.759447 2.093735,4.674003 2.09375,8.75 -1.5e-5,4.066243 -0.717471,7.002273 -2.125,8.781255 -1.16319,1.46618 -2.761769,2.1875 -4.84375,2.1875 -2.091772,0 -3.782031,-0.80322 -5.0625,-2.40625 C 57.657024,98.871569 56.999999,96.015516 57,91.890625 c -10e-7,-4.046673 0.717455,-6.971004 2.125,-8.75 1.163174,-1.46617 2.793002,-2.187479 4.875,-2.1875 z m 16.9375,0 3.34375,0 0,21.593755 -4.125,0 0,-15.531255 c -1.505296,1.407557 -3.269611,2.450565 -5.3125,3.125 l 0,-3.75 c 1.075203,-0.35187 2.239071,-1.022522 3.5,-2 1.260917,-0.987217 2.124561,-2.127683 2.59375,-3.4375 z M 64,84.359375 c -0.498513,1.8e-5 -0.952773,0.177456 -1.34375,0.5 -0.390991,0.312805 -0.691214,0.866449 -0.90625,1.6875 -0.283469,1.065447 -0.437506,2.853164 -0.4375,5.375 -6e-6,2.521857 0.120854,4.27062 0.375,5.21875 0.254133,0.938367 0.587534,1.562216 0.96875,1.875 0.390977,0.31279 0.845237,0.46875 1.34375,0.46875 0.498496,0 0.921506,-0.15596 1.3125,-0.46875 0.390974,-0.322558 0.691199,-0.897678 0.90625,-1.71875 0.283453,-1.055651 0.437489,-2.853143 0.4375,-5.375 -1.1e-5,-2.521836 -0.120871,-4.249122 -0.375,-5.1875 -0.25415,-0.94812 -0.577776,-1.562195 -0.96875,-1.875 -0.381219,-0.322544 -0.814004,-0.499982 -1.3125,-0.5 z"/>
  </symbol>
  <symbol id="javascript-file" viewBox="0 0 128 128">
    <path d="M 28.5 11.25 C 25.598125 11.54359 23.375 14.015184 23.375 17 L 23.375 111 C 23.375 114.1838 25.90994 116.75 29.09375 116.75 L 98.90625 116.75 C 102.09005 116.75 104.625 114.1838 104.625 111 L 104.625 40.375 L 83.59375 40.375 C 79.28764 40.375 75.53125 37.233891 75.53125 33.0625 L 75.53125 11.25 L 29.09375 11.25 C 28.894762 11.25 28.693458 11.230427 28.5 11.25 z M 79.53125 11.25 L 79.53125 33.0625 C 79.53125 34.776622 81.16322 36.375 83.59375 36.375 L 104.625 36.375 L 79.53125 11.25 z M 48.53125 54.65625 L 48.53125 56.3125 C 46.181786 56.806448 44.50572 57.471534 43.53125 58.3125 C 42.650193 59.073428 42.124374 60.187875 41.9375 61.65625 C 41.87074 62.243637 41.843739 64.023169 41.84375 67 C 41.843737 70.243853 41.084286 72.481849 39.5625 73.75 C 38.427814 74.711149 36.136119 75.510953 32.71875 76.125 C 36.576639 76.552183 39.128971 77.59472 40.34375 79.25 C 41.398318 80.691712 41.937486 83.441872 41.9375 87.5 C 41.937486 90.289964 42.364392 92.240319 43.21875 93.375 C 44.179871 94.643159 45.986408 95.420509 48.65625 95.6875 L 48.65625 97.4375 C 41.728042 97.437491 38.133176 94.759241 37.90625 89.40625 L 37.90625 85.40625 C 37.906241 82.44275 37.429878 80.442936 36.46875 79.375 C 35.520956 78.307078 33.597604 77.556734 30.6875 77.15625 L 30.6875 75 C 33.744443 74.546143 35.775508 73.714784 36.75 72.5 C 37.510892 71.565578 37.87499 69.884958 37.875 67.46875 C 37.87499 67.135041 37.85707 66.568868 37.84375 65.78125 C 37.8304 64.980324 37.84374 64.373492 37.84375 63.90625 C 37.843741 60.5156 38.801017 58.102537 40.75 56.6875 C 42.325183 55.539507 44.926971 54.856518 48.53125 54.65625 z M 79.46875 54.65625 C 82.57909 54.829821 84.9518 55.373542 86.59375 56.28125 C 88.796343 57.522748 89.973594 59.51801 90.09375 62.28125 C 90.093736 62.161134 90.093736 63.868755 90.09375 67.40625 C 90.093737 70.036044 90.628661 71.887486 91.75 72.96875 C 92.75117 73.916551 94.615961 74.599538 97.3125 75 L 97.3125 77.15625 C 94.629309 77.516686 92.800319 78.17267 91.8125 79.09375 C 90.677811 80.148338 90.093737 81.995229 90.09375 84.625 C 90.093737 85.038826 90.11168 85.618653 90.125 86.40625 C 90.15168 87.180499 90.15624 87.782475 90.15625 88.15625 C 90.156237 89.985078 89.94506 91.432066 89.53125 92.5 C 88.970575 93.915 87.950491 95.038549 86.46875 95.90625 C 84.746705 96.920773 82.373994 97.437491 79.34375 97.4375 L 79.34375 95.6875 C 82.480788 95.367112 84.471498 94.302124 85.3125 92.5 C 85.819758 91.432066 86.062491 89.131265 86.0625 85.59375 C 86.062491 82.416663 86.794936 80.115863 88.25 78.6875 C 89.624947 77.352597 91.970653 76.498786 95.28125 76.125 C 92.331079 75.591047 90.246007 74.966313 89.03125 74.21875 C 87.776422 73.444515 86.967515 72.258159 86.59375 70.65625 C 86.313409 69.454847 86.187492 67.235058 86.1875 64.03125 C 86.187492 61.428197 85.693227 59.585858 84.71875 58.53125 C 83.837701 57.583491 82.085173 56.859844 79.46875 56.3125 L 79.46875 54.65625 z M 55.96875 59.875 C 56.716293 59.875028 57.354375 60.135662 57.875 60.65625 C 58.408955 61.163543 58.65624 61.801625 58.65625 62.5625 C 58.65624 63.336774 58.408955 63.966059 57.875 64.5 C 57.341026 65.020639 56.680491 65.281273 55.90625 65.28125 C 55.131994 65.281273 54.476011 65.03854 53.96875 64.53125 C 53.461479 64.010659 53.218746 63.368024 53.21875 62.59375 C 53.218746 61.792828 53.479379 61.132292 54 60.625 C 54.520609 60.117761 55.181144 59.875028 55.96875 59.875 z M 57.8125 67.8125 C 58.386502 67.812519 58.687489 68.082257 58.6875 68.65625 C 58.687489 68.909901 58.642582 69.291902 58.5625 69.8125 C 58.48239 70.319784 58.437491 70.701784 58.4375 70.96875 L 58.4375 85.25 C 58.437491 89.802048 57.161325 93.051022 54.625 95 C 53.570415 95.814288 52.527879 96.218742 51.5 96.21875 C 50.739098 96.218742 50.091911 96.038814 49.53125 95.625 C 48.917189 95.184472 48.625 94.591295 48.625 93.84375 C 48.625 92.375342 49.317091 91.624996 50.71875 91.625 C 51.452949 91.624996 51.978768 91.90353 52.3125 92.4375 C 52.659573 92.984808 52.969664 93.249994 53.25 93.25 C 53.91745 93.249994 54.249994 92.512997 54.25 91.03125 L 54.28125 78.25 C 54.281245 75.313205 54.24089 73.367401 54.1875 72.40625 C 54.14745 71.672064 53.87771 71.195703 53.34375 70.96875 C 52.849829 70.848625 52.355565 70.73181 51.875 70.625 C 51.354382 70.464828 51.093748 70.114382 51.09375 69.59375 C 51.093748 69.086501 51.417188 68.798864 52.03125 68.71875 C 51.871058 68.74547 52.351972 68.75001 53.5 68.75 C 54.02061 68.750018 54.739707 68.601648 55.6875 68.28125 C 56.648629 67.960891 57.358621 67.812519 57.8125 67.8125 z M 70.125 68.71875 C 70.618909 68.718769 71.319797 68.86714 72.1875 69.1875 C 73.055181 69.507898 73.697816 69.687518 74.125 69.6875 C 74.52546 69.687518 74.880457 69.507898 75.1875 69.1875 C 75.494516 68.86714 75.800055 68.718769 76.09375 68.71875 C 76.6277 68.718769 76.874984 68.952397 76.875 69.40625 C 76.874984 69.833439 76.425627 70.853523 75.53125 72.46875 C 74.636847 74.084006 74.039117 74.875012 73.71875 74.875 C 73.264868 74.875012 72.986335 74.72209 72.90625 74.375 C 72.90624 74.375013 72.90624 74.006669 72.90625 73.3125 C 72.90624 72.538266 72.645604 71.873179 72.125 71.3125 C 71.617722 70.738504 71.010891 70.468767 70.25 70.46875 C 69.422347 70.468767 68.694454 70.679945 68.09375 71.09375 C 67.412939 71.560986 67.062495 72.181166 67.0625 72.96875 C 67.062495 74.009994 67.934207 74.836803 69.65625 75.4375 C 72.753235 76.50544 74.348595 77.058264 74.46875 77.125 C 76.204121 78.059448 77.093735 79.439079 77.09375 81.28125 C 77.093735 83.296971 76.284829 84.923581 74.65625 86.125 C 73.187835 87.206279 71.394954 87.75 69.3125 87.75 C 67.884139 87.75 66.491157 87.354649 65.15625 86.59375 C 63.5944 85.699359 62.843749 84.602816 62.84375 83.28125 C 62.843749 81.425728 63.733669 80.500007 65.5625 80.5 C 66.096461 80.500007 66.590724 80.68873 67.03125 81.0625 C 67.471766 81.436281 67.687494 81.87229 67.6875 82.40625 C 67.687494 82.993616 67.453865 83.631699 67 84.3125 C 67.934433 85.340385 68.940862 85.843751 69.96875 85.84375 C 70.969926 85.843751 71.805836 85.574013 72.5 85 C 73.220842 84.372593 73.593738 83.550339 73.59375 82.5625 C 73.593738 81.454528 72.749031 80.600718 71.09375 80 C 69.571942 79.452695 68.035143 78.922322 66.5 78.375 C 64.858055 77.493967 64.062497 76.150444 64.0625 74.375 C 64.062497 72.719724 64.660226 71.362544 65.875 70.28125 C 67.036368 69.240036 68.443004 68.718769 70.125 68.71875 z "/>
  </symbol>
  <symbol id="css-file" viewBox="0 0 128 128">
    <path d="M 28.5 11.25 C 25.598125 11.54359 23.375 14.015184 23.375 17 L 23.375 111 C 23.375 114.1838 25.90994 116.75 29.09375 116.75 L 98.90625 116.75 C 102.09005 116.75 104.625 114.1838 104.625 111 L 104.625 40.375 L 83.59375 40.375 C 79.28764 40.375 75.53125 37.233891 75.53125 33.0625 L 75.53125 11.25 L 29.09375 11.25 C 28.894762 11.25 28.693458 11.23043 28.5 11.25 z M 79.53125 11.25 L 79.53125 33.0625 C 79.53125 34.776622 81.16322 36.375 83.59375 36.375 L 104.625 36.375 L 79.53125 11.25 z M 48.0625 49.5625 L 48.0625 51.5625 C 45.222878 52.159499 43.240269 52.952339 42.0625 53.96875 C 40.997632 54.888427 40.350861 56.225283 40.125 58 C 40.04431 58.70993 39.999988 60.870875 40 64.46875 C 39.999984 68.389355 39.089272 71.123529 37.25 72.65625 C 35.878589 73.81792 33.130319 74.757845 29 75.5 C 33.662743 76.016303 36.719285 77.280633 38.1875 79.28125 C 39.462079 81.023739 40.124984 84.34524 40.125 89.25 C 40.124984 92.622022 40.592402 95.003597 41.625 96.375 C 42.786637 97.90773 45.023159 98.833558 48.25 99.15625 L 48.25 101.25 C 39.87639 101.24999 35.524269 98.032262 35.25 91.5625 C 35.249989 91.48182 35.249989 89.880013 35.25 86.75 C 35.249989 83.168236 34.661644 80.728236 33.5 79.4375 C 32.354471 78.146783 30.017227 77.265284 26.5 76.78125 L 26.5 74.15625 C 30.194701 73.607706 32.634702 72.59322 33.8125 71.125 C 34.732133 69.995633 35.187489 67.982792 35.1875 65.0625 C 35.187489 64.659172 35.2036 63.983186 35.1875 63.03125 C 35.17135 62.063231 35.18749 61.28347 35.1875 60.71875 C 35.187489 56.620722 36.331911 53.710249 38.6875 52 C 40.591307 50.612506 43.706274 49.804551 48.0625 49.5625 z M 79.9375 49.78125 C 83.696737 49.991032 86.577997 50.65292 88.5625 51.75 C 91.224611 53.250506 92.604779 55.660277 92.75 59 C 92.749985 58.854824 92.749985 60.943244 92.75 65.21875 C 92.749985 68.397188 93.457221 70.630657 94.8125 71.9375 C 96.022539 73.083037 98.240883 73.890992 101.5 74.375 L 101.5 77 C 98.257016 77.435632 96.006405 78.199258 94.8125 79.3125 C 93.441086 80.587103 92.749984 82.82159 92.75 86 C 92.74998 86.50016 92.7964 87.204341 92.8125 88.15625 C 92.84475 89.092028 92.87499 89.798244 92.875 90.25 C 92.874985 92.460367 92.625141 94.209267 92.125 95.5 C 91.447353 97.210206 90.165873 98.607525 88.375 99.65625 C 86.293694 100.88243 83.412434 101.46874 79.75 101.46875 L 79.75 99.375 C 83.541506 98.987772 85.983544 97.709344 87 95.53125 C 87.613085 94.240518 87.93749 91.463032 87.9375 87.1875 C 87.93749 83.347591 88.803872 80.570106 90.5625 78.84375 C 92.224297 77.230352 95.061228 76.170517 99.0625 75.71875 C 95.496848 75.0734 92.968188 74.309773 91.5 73.40625 C 89.983384 72.470489 89.014243 71.029859 88.5625 69.09375 C 88.223673 67.641703 88.062489 64.997206 88.0625 61.125 C 88.062489 57.978882 87.427779 55.743377 86.25 54.46875 C 85.185142 53.323265 83.099777 52.442785 79.9375 51.78125 L 79.9375 49.78125 z M 50.6875 55.28125 L 61.625 55.28125 C 62.492463 55.28125 63.1875 55.976287 63.1875 56.84375 C 63.1875 57.711213 62.492463 58.4375 61.625 58.4375 L 50.6875 58.4375 C 49.820037 58.4375 49.125 57.711213 49.125 56.84375 C 49.125 55.976287 49.820037 55.28125 50.6875 55.28125 z M 66.8125 55.28125 L 77.3125 55.28125 C 78.179963 55.28125 78.875 55.976287 78.875 56.84375 L 78.875 69.8125 C 78.875 70.679963 78.179963 71.375 77.3125 71.375 L 66.8125 71.375 C 65.945037 71.375 65.25 70.679963 65.25 69.8125 L 65.25 56.84375 C 65.25 55.976287 65.945037 55.28125 66.8125 55.28125 z M 50.6875 61.625 L 61.625 61.625 C 62.492463 61.625 63.1875 62.351287 63.1875 63.21875 C 63.1875 64.086213 62.492463 64.78125 61.625 64.78125 L 50.6875 64.78125 C 49.820037 64.78125 49.125 64.086213 49.125 63.21875 C 49.125 62.351287 49.820037 61.625 50.6875 61.625 z M 50.6875 67.96875 L 61.625 67.96875 C 62.492463 67.96875 63.1875 68.695037 63.1875 69.5625 C 63.1875 70.429963 62.492463 71.125 61.625 71.125 L 50.6875 71.125 C 49.820037 71.125 49.125 70.429963 49.125 69.5625 C 49.125 68.695037 49.820037 67.96875 50.6875 67.96875 z M 50.6875 74.34375 L 77.3125 74.34375 C 78.179963 74.34375 78.875 75.038787 78.875 75.90625 C 78.875 76.773713 78.179963 77.46875 77.3125 77.46875 L 50.6875 77.46875 C 49.820037 77.46875 49.125 76.773713 49.125 75.90625 C 49.125 75.038787 49.820037 74.34375 50.6875 74.34375 z M 50.6875 80.6875 L 77.3125 80.6875 C 78.179963 80.6875 78.875 81.382537 78.875 82.25 C 78.875 83.117463 78.179963 83.8125 77.3125 83.8125 L 50.6875 83.8125 C 49.820037 83.8125 49.125 83.117463 49.125 82.25 C 49.125 81.382537 49.820037 80.6875 50.6875 80.6875 z M 50.6875 87.03125 L 77.3125 87.03125 C 78.179963 87.03125 78.875 87.726287 78.875 88.59375 C 78.875 89.461213 78.179963 90.15625 77.3125 90.15625 L 50.6875 90.15625 C 49.820037 90.15625 49.125 89.461213 49.125 88.59375 C 49.125 87.726287 49.820037 87.03125 50.6875 87.03125 z M 50.6875 93.375 L 77.3125 93.375 C 78.179963 93.375 78.875 94.070037 78.875 94.9375 C 78.875 95.804963 78.179963 96.5 77.3125 96.5 L 50.6875 96.5 C 49.820037 96.5 49.125 95.804963 49.125 94.9375 C 49.125 94.070037 49.820037 93.375 50.6875 93.375 z "/>
  </symbol>
  <symbol id="image-file" viewBox="0 0 128 128">
    <path d="m 29.09375,11.25 c -3.1838,0 -5.71875,2.566196 -5.71875,5.75 l 0,94 c 0,3.1838 2.53495,5.75 5.71875,5.75 l 69.8125,0 c 3.1838,0 5.71875,-2.5662 5.71875,-5.75 l 0,-70.625 -21.03125,0 c -4.30611,0 -8.0625,-3.141109 -8.0625,-7.3125 l 0,-21.8125 -46.4375,0 z m 50.4375,0 0,21.8125 c 0,1.714122 1.63197,3.3125 4.0625,3.3125 l 21.03125,0 L 79.53125,11.25 z M 38.375,57.875 l 51.25,0 0,38.125 -51.25,0 0,-38.125 z m 3.5,4.34375 0,26.8125 c 0.845074,-1.285379 2.291137,-2.886678 4.71875,-4.0625 13.328591,-6.455741 20.173249,1.404429 28.71875,2.90625 4.36081,0.766387 8.53988,-2.458634 10.84375,-4.625 l 0,-21.03125 -44.28125,0 z m 32.09375,5.0625 c 2.458191,0 4.4375,2.010559 4.4375,4.46875 0,2.45819 -1.979309,4.4375 -4.4375,4.4375 -2.458191,0 -4.46875,-1.97931 -4.46875,-4.4375 0,-2.458191 2.010559,-4.46875 4.46875,-4.46875 z"/>
  </symbol>
  <symbol id="svg-file" viewBox="0 0 128 128">
    <path d="m 29.09375,11.234375 c -3.183804,0 -5.71875,2.566196 -5.71875,5.75 l 0,94.031255 c 0,3.1838 2.534946,5.75 5.71875,5.75 l 69.8125,0 c 3.1838,0 5.71875,-2.5662 5.71875,-5.75 l 0,-70.656255 -21.03125,0 c -4.306108,0 -8.0625,-3.141109 -8.0625,-7.3125 l 0,-21.8125 -46.4375,0 z m 50.4375,0 0,21.8125 c 0,1.714122 1.631968,3.3125 4.0625,3.3125 l 21.03125,0 -25.09375,-25.125 z m -15.9375,39.4375 c 1.51589,0.003 3.04039,0.554942 4.1875,1.65625 l 18.78125,19.1875 c 7.45656,7.45656 -8.26582,9.18849 -12.8125,11.84375 -1.58293,1.61525 4.85165,2.69774 4.1875,4.6875 -1.34447,4.02668 -5.00782,1.45015 -8.9375,5.46875 -1.58023,1.61524 3.04897,1.477153 1.46875,3.09375 -2.98263,2.18241 -9.106079,3.695945 -9.59375,1.03125 -0.684363,-3.728897 -4.326023,-2.19725 -5.90625,-3.8125 -1.580225,-1.61526 3.236476,-3.32224 1.65625,-4.9375 -1.582921,-1.61525 -9.576024,-3.13475 -11.15625,-4.75 -1.580226,-1.6166 6.080226,-2.791 4.5,-4.40625 -4.405235,-2.18106 -14.708533,-1.30258 -8.59375,-8.875 l 18.09375,-18.53125 c 1.087836,-1.113433 2.6091,-1.65925 4.125,-1.65625 z m 0.15625,1.78125 c -1.08228,-0.0057 -2.176617,0.377853 -2.96875,1.1875 -1.576186,1.61121 -4.441464,4.396989 -6.96875,7.125 -1.446856,1.446856 -1.279852,3.46875 0.3125,3.46875 l 3.90625,0 2.5625,-4.4375 1.5625,6.34375 4.75,-3 3,1.5625 0.6875,-4.21875 3.53125,2.84375 c 0.3799,-0.386637 0.39772,-1.743709 -0.28125,-2.4375 l -7.15625,-7.25 c -0.77664,-0.786745 -1.85522,-1.1818 -2.9375,-1.1875 z m -8.59375,28.28125 c -2.35754,0 6.979808,3.79317 8.90625,3.28125 0.85411,-0.43109 1.30719,-1.05683 0.6875,-1.1875 -1.787693,-0.29638 -9.110116,-1.79334 -9.59375,-2.09375 z m 28.4375,5.09375 c 1.47178,-0.05068 2.95522,0.57308 3.4375,1.96875 0,1.73784 -6.75,1.16877 -6.75,0.25 0.4001,-1.40981 1.84072,-2.16805 3.3125,-2.21875 z m -31.3125,3.96875 c 0.932466,-0.04954 1.827097,0.19879 2.3125,0.84375 -0.74229,1.93453 -3.209372,3.66748 -4.8125,2.28125 -1.750472,-1.51615 0.448581,-3.01602 2.5,-3.125 z m 27.15625,0.125 c 2.25646,0.46073 2.704,2.07053 2.25,2.53125 -2.03691,1.19763 -4.31655,-0.67755 -2.25,-2.53125 z"/>
  </symbol>
  <symbol id="php-file" viewBox="0 0 128 128">
    <path d="m 29.09375,11.234375 c -3.183804,0 -5.71875,2.566196 -5.71875,5.75 l 0,94.031255 c 0,3.1838 2.534946,5.75 5.71875,5.75 l 69.8125,0 c 3.1838,0 5.71875,-2.5662 5.71875,-5.75 l 0,-70.656255 -21.03125,0 c -4.306108,0 -8.0625,-3.141109 -8.0625,-7.3125 l 0,-21.8125 -46.4375,0 z m 50.4375,0 0,21.8125 c 0,1.714122 1.631968,3.3125 4.0625,3.3125 l 21.03125,0 -25.09375,-25.125 z m -1.96875,52 c 3.668569,3.4e-5 6.582178,0.981033 8.75,2.90625 2.167776,1.91012 3.249974,4.14074 3.25,6.6875 -2.6e-5,1.409852 -0.384075,2.741787 -1.1875,4 -0.788316,1.258253 -2.486348,2.957216 -5.09375,5.125 -1.34921,1.121813 -2.19776,2.036588 -2.53125,2.71875 -0.318366,0.682187 -0.467836,1.897764 -0.4375,3.65625 l -5.78125,0 c -0.01517,-0.83376 -0.03126,-1.349326 -0.03125,-1.53125 -1.2e-5,-1.879759 0.315951,-3.412231 0.9375,-4.625 0.621524,-1.21274 1.854124,-2.577788 3.71875,-4.09375 1.864595,-1.515925 2.979904,-2.498786 3.34375,-2.96875 0.56088,-0.742791 0.84373,-1.574319 0.84375,-2.46875 -2e-5,-1.243049 -0.499496,-2.308226 -1.5,-3.1875 -0.985382,-0.894379 -2.317317,-1.343722 -4,-1.34375 -1.622074,2.8e-5 -2.971031,0.481552 -4.0625,1.40625 -1.09149,0.924753 -1.840704,2.323844 -2.25,4.21875 l -5.875,-0.71875 c 0.166751,-2.713515 1.300013,-5.04254 3.4375,-6.9375 2.152633,-1.894898 4.982066,-2.843716 8.46875,-2.84375 z m -16.5,4.5625 0,6.46875 -15.9375,6.09375 15.9375,6.34375 0,6.4375 -22.84375,-9.9375 0,-5.53125 22.84375,-9.875 z m 13.46875,22.75 6.375,0 0,6.375 -6.375,0 0,-6.375 z"/>
  </symbol>
  <symbol id="html-file" viewBox="0 0 128 128">
    <path d="m 29.09375,11.234375 c -3.183804,0 -5.71875,2.566195 -5.71875,5.75 l 0,94.031255 c 0,3.1838 2.534946,5.75 5.71875,5.75 l 69.8125,0 c 3.1838,0 5.71875,-2.5662 5.71875,-5.75 l 0,-70.656255 -21.03125,0 c -4.30611,0 -8.0625,-3.141109 -8.0625,-7.3125 l 0,-21.8125 -46.4375,0 z m 50.4375,0 0,21.8125 c 0,1.714123 1.63197,3.3125 4.0625,3.3125 l 21.03125,0 -25.09375,-25.125 z M 71,64.609375 l 4.09375,0 -7.125,29.46875 -4.03125,0 L 71,64.609375 z m -19.90625,4.09375 0,5.53125 -13.65625,5.21875 13.65625,5.40625 0,5.5 -19.5625,-8.5 0,-4.71875 19.5625,-8.4375 z m 25.78125,0.03125 19.5625,8.4375 0,4.6875 -19.5625,8.5 0,-5.5 13.65625,-5.34375 -13.65625,-5.3125 0,-5.46875 z"/>
  </symbol>
  <symbol id="json-file" viewBox="0 0 128 128">
    <path d="M 28.5 11.25 C 25.598125 11.54359 23.375 14.015184 23.375 17 L 23.375 111 C 23.375 114.1838 25.90994 116.75 29.09375 116.75 L 98.90625 116.75 C 102.09005 116.75 104.625 114.1838 104.625 111 L 104.625 40.375 L 83.59375 40.375 C 79.28764 40.375 75.53125 37.233891 75.53125 33.0625 L 75.53125 11.25 L 29.09375 11.25 C 28.894762 11.25 28.693458 11.23043 28.5 11.25 z M 79.53125 11.25 L 79.53125 33.0625 C 79.53125 34.776622 81.16322 36.375 83.59375 36.375 L 104.625 36.375 L 79.53125 11.25 z M 55.582031 54.65625 L 55.582031 56.3125 C 53.232567 56.806448 51.556501 57.471534 50.582031 58.3125 C 49.700974 59.073428 49.175155 60.187875 48.988281 61.65625 C 48.921521 62.243637 48.894521 64.023169 48.894531 67 C 48.894518 70.243853 48.135067 72.481849 46.613281 73.75 C 45.478595 74.711149 43.1869 75.510953 39.769531 76.125 C 43.62742 76.552183 46.179752 77.59472 47.394531 79.25 C 48.449099 80.691712 48.988267 83.441872 48.988281 87.5 C 48.988267 90.289964 49.415173 92.240319 50.269531 93.375 C 51.230652 94.643159 53.037189 95.420509 55.707031 95.6875 L 55.707031 97.4375 C 48.778823 97.437491 45.183957 94.759241 44.957031 89.40625 L 44.957031 85.40625 C 44.957022 82.44275 44.480659 80.442936 43.519531 79.375 C 42.571737 78.307078 40.648385 77.556734 37.738281 77.15625 L 37.738281 75 C 40.795224 74.546143 42.826289 73.714784 43.800781 72.5 C 44.561673 71.565578 44.925771 69.884958 44.925781 67.46875 C 44.925771 67.135041 44.907851 66.568868 44.894531 65.78125 C 44.881181 64.980324 44.894521 64.373492 44.894531 63.90625 C 44.894522 60.5156 45.851798 58.102537 47.800781 56.6875 C 49.375964 55.539507 51.977752 54.856518 55.582031 54.65625 z M 72.417969 54.65625 C 75.528308 54.829821 77.901019 55.373542 79.542969 56.28125 C 81.745561 57.522748 82.922813 59.51801 83.042969 62.28125 C 83.042955 62.161134 83.042955 63.868755 83.042969 67.40625 C 83.042956 70.036044 83.577879 71.887486 84.699219 72.96875 C 85.700389 73.916551 87.565179 74.599538 90.261719 75 L 90.261719 77.15625 C 87.578528 77.516686 85.749538 78.17267 84.761719 79.09375 C 83.62703 80.148338 83.042956 81.995229 83.042969 84.625 C 83.042959 85.038826 83.060899 85.618653 83.074219 86.40625 C 83.100869 87.180499 83.105458 87.782475 83.105469 88.15625 C 83.105456 89.985078 82.894278 91.432066 82.480469 92.5 C 81.919793 93.915 80.899709 95.038549 79.417969 95.90625 C 77.695924 96.920773 75.323212 97.437491 72.292969 97.4375 L 72.292969 95.6875 C 75.430007 95.367112 77.420716 94.302124 78.261719 92.5 C 78.768976 91.432066 79.011709 89.131265 79.011719 85.59375 C 79.011709 82.416663 79.744155 80.115863 81.199219 78.6875 C 82.574166 77.352597 84.919871 76.498786 88.230469 76.125 C 85.280298 75.591047 83.195226 74.966313 81.980469 74.21875 C 80.72564 73.444515 79.916734 72.258159 79.542969 70.65625 C 79.262627 69.454847 79.136711 67.235058 79.136719 64.03125 C 79.136711 61.428197 78.642445 59.585858 77.667969 58.53125 C 76.786919 57.583491 75.034391 56.859844 72.417969 56.3125 L 72.417969 54.65625 z "/>
  </symbol>
  <symbol id="text-file" viewBox="0 0 128 128">
    <path d="m 29.09375,11.234373 c -3.1838,0 -5.71875,2.5662 -5.71875,5.749999 l 0,94.031258 c 0,3.18379 2.53495,5.75 5.71875,5.75 l 69.8125,0 c 3.1838,0 5.71875,-2.56621 5.71875,-5.75 l 0,-70.656258 -21.03125,0 c -4.30611,0 -8.0625,-3.1411 -8.0625,-7.3125 l 0,-21.812499 -46.4375,0 z m 50.4375,0 0,21.812499 c 0,1.71413 1.63197,3.3125 4.0625,3.3125 l 21.03125,0 -25.09375,-25.124999 z m -43.625,39.562499 34.5,0 c 0.97906,0 1.75,0.80218 1.75,1.78125 l 0,2.625 c 0,0.97907 -0.77094,1.78125 -1.75,1.78125 l -34.5,0 c -0.97907,0 -1.75,-0.80218 -1.75,-1.78125 l 0,-2.625 c 0,-0.97907 0.77093,-1.78125 1.75,-1.78125 z m 0,14.40625 56.15625,0 c 0.97906,0 1.78125,0.80218 1.78125,1.78125 l 0,2.65625 c 0,0.97907 -0.80219,1.75 -1.78125,1.75 l -56.15625,0 c -0.97907,0 -1.75,-0.77093 -1.75,-1.75 l 0,-2.65625 c 0,-0.97907 0.77093,-1.78125 1.75,-1.78125 z m 0,14.4375 56.15625,0 c 0.97906,0 1.78125,0.77093 1.78125,1.75 l 0,2.65625 c 0,0.97907 -0.80219,1.78125 -1.78125,1.78125 l -56.15625,0 c -0.97907,0 -1.75,-0.80218 -1.75,-1.78125 l 0,-2.65625 c 0,-0.97907 0.77093,-1.75 1.75,-1.75 z m 0,14.40625 56.15625,0 c 0.97906,0 1.78125,0.77093 1.78125,1.75 l 0,2.65625 c 0,0.97907 -0.80219,1.781258 -1.78125,1.781258 l -56.15625,0 c -0.97907,0 -1.75,-0.802188 -1.75,-1.781258 l 0,-2.65625 c 0,-0.97907 0.77093,-1.75 1.75,-1.75 z"/>
  </symbol>
  <symbol id="back" viewBox="0 0 128 128">
    <path d="M 68.46875,13.968751 7.3125005,64.000001 68.46875,114.03125 l 0,-24.249999 52.21875,0 0,-52.0625 -52.21875,0 0,-23.75 z"/>
  </symbol>
  <symbol id="up" viewBox="0 0 128 128">
    <path d="M 114.03125,68.46875 64.000001,7.312501 13.968751,68.46875 l 24.25,0 0,52.21875 52.0625,0 0,-52.21875 23.749999,0 z"/>
  </symbol>
  <symbol id="forward" viewBox="0 0 128 128">
    <path d="M 59.53125,114.03125 120.6875,64 59.53125,13.968752 l 0,24.249998 -52.21875,0 0,52.0625 52.21875,0 0,23.75 z"/>
  </symbol>
  <symbol id="refresh" viewBox="0 0 128 128">
    <path d="m 61.96231,12.017823 0,14.558944 c -23.678827,1.06314 -42.69312,20.758335 -42.69312,44.688651 0,24.605523 20.111234,44.716762 44.716757,44.716762 24.605527,0 44.744853,-20.111239 44.744853,-44.716762 l -15.289693,0 c 0,16.342356 -13.112799,29.427062 -29.45516,29.427062 -16.342354,0 -29.427055,-13.084706 -29.427055,-29.427062 0,-15.661658 12.018317,-28.340829 27.403418,-29.370843 l 0,16.919853 40.52894,-23.412355 -40.52894,-23.38425 z"/>
  </symbol>
  <symbol id="word-file" viewBox="0 0 128 128">
    <path d="M 28.5 11.25 C 25.598125 11.54359 23.375 14.015184 23.375 17 L 23.375 111 C 23.375 114.1838 25.90994 116.75 29.09375 116.75 L 98.90625 116.75 C 102.09005 116.75 104.625 114.1838 104.625 111 L 104.625 40.375 L 83.59375 40.375 C 79.28764 40.375 75.53125 37.233891 75.53125 33.0625 L 75.53125 11.25 L 29.09375 11.25 C 28.894762 11.25 28.693458 11.23043 28.5 11.25 z M 79.53125 11.25 L 79.53125 33.0625 C 79.53125 34.776622 81.16322 36.375 83.59375 36.375 L 104.625 36.375 L 79.53125 11.25 z M 35.71875 60.375 L 50.75 60.375 L 50.75 61.5 L 50.03125 61.5 C 48.973506 61.500039 48.152537 61.739817 47.59375 62.21875 C 47.034937 62.69776 46.749988 63.258994 46.75 63.9375 C 46.749988 64.636037 47.184372 66.235431 48.0625 68.75 L 56.0625 91.53125 L 62.8125 72.1875 L 61.59375 68.75 L 60.65625 66.03125 C 60.237124 65.033428 59.768862 64.16466 59.25 63.40625 C 58.990533 63.027102 58.660413 62.696982 58.28125 62.4375 C 57.782298 62.07831 57.280157 61.815947 56.78125 61.65625 C 56.402042 61.536547 55.818224 61.500039 55 61.5 L 55 60.375 L 70.78125 60.375 L 70.78125 61.5 L 69.71875 61.5 C 68.601115 61.500039 67.768854 61.739817 67.25 62.21875 C 66.731082 62.69776 66.499969 63.338044 66.5 64.15625 C 66.499969 65.174102 66.945645 66.934223 67.84375 69.46875 L 75.625 91.53125 L 83.34375 69.1875 C 84.221817 66.712845 84.6562 64.989231 84.65625 64.03125 C 84.6562 63.572273 84.518058 63.149181 84.21875 62.75 C 83.9393 62.350895 83.564009 62.065947 83.125 61.90625 C 82.36658 61.626889 81.373591 61.500039 80.15625 61.5 L 80.15625 60.375 L 92.28125 60.375 L 92.28125 61.5 C 91.223463 61.500039 90.377282 61.683353 89.71875 62.0625 C 89.06011 62.441725 88.442411 63.149765 87.84375 64.1875 C 87.444554 64.886037 86.795606 66.553188 85.9375 69.1875 L 74.625 101.90625 L 73.4375 101.90625 L 64.1875 75.9375 L 55 101.90625 L 53.90625 101.90625 L 41.84375 68.1875 C 40.945671 65.672931 40.395731 64.177801 40.15625 63.71875 C 39.757102 62.960415 39.198497 62.421768 38.5 62.0625 C 37.821454 61.683353 36.896221 61.500039 35.71875 61.5 L 35.71875 60.375 z "/>
  </symbol>
  <symbol id="excel-file" viewBox="0 0 128 128">
    <path d="M 28.5 11.25 C 25.598125 11.54359 23.375 14.015184 23.375 17 L 23.375 111 C 23.375 114.1838 25.90994 116.75 29.09375 116.75 L 98.90625 116.75 C 102.09005 116.75 104.625 114.1838 104.625 111 L 104.625 40.375 L 83.59375 40.375 C 79.28764 40.375 75.53125 37.233891 75.53125 33.0625 L 75.53125 11.25 L 29.09375 11.25 C 28.894762 11.25 28.693458 11.23043 28.5 11.25 z M 79.53125 11.25 L 79.53125 33.0625 C 79.53125 34.776622 81.16322 36.375 83.59375 36.375 L 104.625 36.375 L 79.53125 11.25 z M 43.125 60.5 L 62 60.5 L 62 61.625 C 60.393989 61.68527 59.28973 61.944566 58.6875 62.40625 C 58.105312 62.868011 57.812484 63.37544 57.8125 63.9375 C 57.812484 64.680308 58.317638 65.762217 59.28125 67.1875 L 65.53125 76.5625 L 72.78125 67.375 C 73.624364 66.29099 74.163043 65.526534 74.34375 65.125 C 74.544466 64.723538 74.624968 64.32786 74.625 63.90625 C 74.624968 63.484715 74.522116 63.102487 74.28125 62.78125 C 73.980095 62.359716 73.586691 62.066888 73.125 61.90625 C 72.663246 61.725615 71.695363 61.645115 70.25 61.625 L 70.25 60.5 L 84.75 60.5 L 84.75 61.625 C 83.605689 61.68527 82.660156 61.855166 81.9375 62.15625 C 80.853416 62.618011 79.872083 63.248367 78.96875 64.03125 C 78.065343 64.814207 76.802357 66.267171 75.15625 68.375 L 67.03125 78.71875 L 75.8125 91.78125 C 78.241527 95.394739 80.023118 97.692658 81.1875 98.65625 C 82.371879 99.599772 83.880717 100.11838 85.6875 100.21875 L 85.6875 101.34375 L 68.15625 101.34375 L 68.15625 100.21875 C 69.320567 100.19865 70.187874 100.09583 70.75 99.875 C 71.171544 99.694327 71.520247 99.42385 71.78125 99.0625 C 72.062268 98.68108 72.18747 98.287676 72.1875 97.90625 C 72.18747 97.444531 72.086891 96.992977 71.90625 96.53125 C 71.765695 96.189982 71.213566 95.300324 70.25 93.875 L 63.34375 83.375 L 54.78125 94.34375 C 53.877868 95.5081 53.336913 96.286007 53.15625 96.6875 C 52.975565 97.068927 52.874989 97.484681 52.875 97.90625 C 52.874989 98.54865 53.145466 99.078429 53.6875 99.5 C 54.22951 99.921574 55.286794 100.15853 56.8125 100.21875 L 56.8125 101.34375 L 42.3125 101.34375 L 42.3125 100.21875 C 43.336319 100.11838 44.225977 99.914949 44.96875 99.59375 C 46.21339 99.071804 47.40705 98.352049 48.53125 97.46875 C 49.655437 96.585459 50.929598 95.233073 52.375 93.40625 L 62 81.25 L 53.96875 69.46875 C 51.780576 66.276876 49.931934 64.202457 48.40625 63.21875 C 46.880552 62.215044 45.112412 61.685265 43.125 61.625 L 43.125 60.5 z "/>
  </symbol>
  <symbol id="powerpoint-file" viewBox="0 0 128 128">
    <path d="M 28.5 11.25 C 25.598125 11.54359 23.375 14.015184 23.375 17 L 23.375 111 C 23.375 114.1838 25.90994 116.75 29.09375 116.75 L 98.90625 116.75 C 102.09005 116.75 104.625 114.1838 104.625 111 L 104.625 40.375 L 83.59375 40.375 C 79.28764 40.375 75.53125 37.233891 75.53125 33.0625 L 75.53125 11.25 L 29.09375 11.25 C 28.894762 11.25 28.693458 11.23043 28.5 11.25 z M 79.53125 11.25 L 79.53125 33.0625 C 79.53125 34.776622 81.16322 36.375 83.59375 36.375 L 104.625 36.375 L 79.53125 11.25 z M 48.4375 60.5 L 63.40625 60.5 C 67.060905 60.500041 69.954011 60.893227 72.0625 61.65625 C 74.170939 62.399272 75.929166 63.650362 77.375 65.4375 C 78.820774 67.22471 79.562468 69.331445 79.5625 71.78125 C 79.562468 75.114661 78.458838 77.849138 76.25 79.9375 C 74.061185 82.025905 70.953602 83.062518 66.9375 83.0625 C 65.953531 83.062518 64.894578 82.984333 63.75 82.84375 C 62.605389 82.703204 61.367727 82.499898 60.0625 82.21875 L 60.0625 94.125 C 60.062487 96.695325 60.343979 98.283754 60.90625 98.90625 C 61.6693 99.789799 62.828776 100.21875 64.375 100.21875 L 65.9375 100.21875 L 65.9375 101.34375 L 48.4375 101.34375 L 48.4375 100.21875 L 49.96875 100.21875 C 51.69568 100.21875 52.944511 99.655767 53.6875 98.53125 C 54.089106 97.908754 54.281243 96.454358 54.28125 94.125 L 54.28125 67.71875 C 54.281243 65.148466 54.01092 63.560037 53.46875 62.9375 C 52.6856 62.053992 51.514954 61.62504 49.96875 61.625 L 48.4375 61.625 L 48.4375 60.5 z M 64 62.9375 C 62.975872 62.937538 61.668936 63.118506 60.0625 63.5 L 60.0625 80.5 C 61.12676 80.700827 62.08293 80.837117 62.90625 80.9375 C 63.72954 81.037923 64.417645 81.09377 65 81.09375 C 67.088366 81.09377 68.900181 80.293971 70.40625 78.6875 C 71.932353 77.060993 72.687475 74.976597 72.6875 72.40625 C 72.687475 70.639185 72.316628 69.00608 71.59375 67.5 C 70.870824 65.973908 69.856549 64.83677 68.53125 64.09375 C 67.205909 63.330724 65.686755 62.937538 64 62.9375 z "/>
  </symbol>
  <symbol id="pdf-file" viewBox="0 0 128 128">
    <path d="m 29.09375,11.234375 c -3.183804,0 -5.71875,2.566196 -5.71875,5.75 l 0,94.031255 c 0,3.1838 2.534946,5.75 5.71875,5.75 l 69.8125,0 c 3.1838,0 5.71875,-2.5662 5.71875,-5.75 l 0,-70.656255 -21.03125,0 c -4.306108,0 -8.0625,-3.141109 -8.0625,-7.3125 l 0,-21.8125 -46.4375,0 z m 50.4375,0 0,21.8125 c 0,1.714122 1.631968,3.3125 4.0625,3.3125 l 21.03125,0 -25.09375,-25.125 z M 63.125,42.171875 c 0.38824,0.003 0.736398,0.0853 1.0625,0.21875 1.304409,0.533783 2.034771,1.641665 2.625,2.96875 0.59023,1.327086 0.99039,2.975367 1.0625,4.90625 0.143069,3.83078 -0.365131,6.951466 -1.15625,10.21875 1.261304,3.080635 2.67569,6.201579 4.09375,8.53125 1.902802,3.12603 4.541999,6.72283 7.09375,9.6875 0.473376,0.549977 0.903359,0.908437 1.375,1.40625 1.72727,-0.31957 3.323629,-0.51431 4.6875,-0.4375 2.602064,0.146539 4.387747,0.598604 5.65625,1.59375 0.634251,0.497572 1.117648,1.198459 1.28125,2 0.163602,0.801542 -0.03341,1.602511 -0.375,2.21875 -0.683176,1.232477 -1.838645,1.967804 -3.1875,2.375 -1.348854,0.407195 -2.950422,0.424903 -4.5,-0.21875 -1.559903,-0.647941 -3.135571,-1.998782 -4.75,-3.625 -3.004722,0.724606 -6.545733,1.830396 -10.09375,3.21875 -3.048166,1.192761 -7.127868,2.943931 -10.90625,4.625 -1.947612,4.647273 -4.448463,8.590065 -8.25,11.281255 -3.402916,2.40899 -6.149189,3.0803 -8.28125,2.6875 -1.06603,-0.1964 -1.938417,-0.67585 -2.5625,-1.3125 -0.624084,-0.63667 -1.06646,-1.401 -0.96875,-2.4375 0.193938,-2.05717 1.578837,-3.382833 3.1875,-4.843755 1.608663,-1.460921 3.606027,-2.852764 5.5625,-3.90625 1.720222,-0.926274 5.004513,-2.451124 8.4375,-4 1.703489,-4.322683 3.111194,-9.382514 4.71875,-14.875 1.73203,-5.917768 3.185506,-9.966438 4.15625,-13.59375 -0.265421,-0.672285 -0.600654,-1.371839 -0.84375,-2.03125 -1.515695,-4.111411 -2.57574,-7.5844 -2.65625,-9.875 -0.07584,-2.157934 0.144939,-3.745174 0.8125,-5 0.333781,-0.627412 0.841605,-1.207987 1.5625,-1.53125 0.360448,-0.161634 0.76801,-0.253 1.15625,-0.25 z m 0.1875,4.09375 c -0.131789,0.548224 -0.26199,1.30099 -0.21875,2.53125 0.02366,0.673267 0.512597,2.566608 1.15625,4.75 0.06068,-1.032233 0.16774,-2.011657 0.125,-3.15625 -0.05743,-1.53782 -0.377717,-2.78795 -0.75,-3.625 -0.163069,-0.366649 -0.162993,-0.315008 -0.3125,-0.5 z m 1.90625,19.5625 c -0.890832,2.88544 -1.727671,5.566937 -2.90625,9.59375 -1.227106,4.192611 -2.388234,8.18831 -3.65625,11.96875 2.819919,-1.22072 5.768284,-2.508513 8.0625,-3.40625 2.981166,-1.166543 5.885792,-2.165062 8.625,-2.9375 -0.02915,-0.03379 -0.06453,-0.02856 -0.09375,-0.0625 -2.690343,-3.12569 -5.414136,-6.863403 -7.4375,-10.1875 -0.897064,-1.473748 -1.759247,-3.20245 -2.59375,-4.96875 z m 18.5625,17.3125 c -0.308355,-0.01736 -0.796465,0.06786 -1.1875,0.09375 0.585932,0.45937 1.271446,1.053624 1.59375,1.1875 0.716999,0.297821 1.501813,0.291313 2.15625,0.09375 0.533289,-0.160991 0.78106,-0.432089 0.9375,-0.59375 -0.398108,-0.239124 -1.472299,-0.667057 -3.5,-0.78125 z M 51.875,94.296875 c -1.526064,0.722173 -3.605283,1.676883 -4.4375,2.125 -1.68925,0.909596 -3.521403,2.176969 -4.875,3.40625 -1.157259,1.050975 -1.732759,2.045785 -1.90625,2.343755 0.111322,0.0823 0.209249,0.1907 0.53125,0.25 0.854765,0.15748 2.697107,-0.0523 5.625,-2.125 2.043903,-1.446925 3.660692,-3.52277 5.0625,-6.000005 z"/>
  </symbol>
  <symbol id="drive" viewBox="0 0 128 128">
    <path d="m 28.937588,31.041238 c -2.163924,0 -3.544535,1.772772 -3.90625,3.90625 l -7.8125,38.406743 c -0.243787,2.150181 1.742326,3.90625 3.90625,3.90625 l 85.750002,0 c 2.16393,0 4.14885,-1.755935 3.90625,-3.90625 l -7.8125,-38.406743 c -0.33352,-2.138067 -1.74233,-3.90625 -3.906252,-3.90625 z m -7.8125,50.167524 c -2.163957,0 -3.90625,1.742293 -3.90625,3.90625 l 0,7.9375 c 0,2.16396 1.742293,3.90625 3.90625,3.90625 l 85.750002,0 c 2.16396,0 3.90625,-1.74229 3.90625,-3.90625 l 0,-7.9375 c 0,-2.163957 -1.74229,-3.90625 -3.90625,-3.90625 z m 3.8125,4.71875 9.5625,0 c 0.722218,0 1.3125,0.559032 1.3125,1.28125 l 0,3.71875 c 0,0.72222 -0.590282,1.3125 -1.3125,1.3125 l -9.5625,0 c -0.722218,0 -1.3125,-0.59028 -1.3125,-1.3125 l 0,-3.71875 c 0,-0.722218 0.590282,-1.28125 1.3125,-1.28125 z"/>
  </symbol>
  <symbol id="optical" viewBox="0 0 128 128">
    <path d="M 63.999999,12.996762 C 35.83085,12.996762 12.996761,35.830851 12.996761,64 c 0,28.169149 22.834089,51.00324 51.003238,51.00324 28.169149,0 51.003241,-22.834091 51.003241,-51.00324 0,-28.169149 -22.834092,-51.003238 -51.003241,-51.003238 z m 0,41.050412 c 5.50281,0 9.952826,4.450016 9.952826,9.952826 0,5.50281 -4.450016,9.952826 -9.952826,9.952826 -5.50281,0 -9.952826,-4.450016 -9.952826,-9.952826 0,-5.50281 4.450016,-9.952826 9.952826,-9.952826 z"/>
  </symbol>
  <symbol id="home" viewBox="0 0 128 128">
    <path d="M 64.012651,19.99884 15.074068,64.689787 c -4.647743,4.243683 -2.257774,11.036593 3.521545,11.036595 l 7.623963,0 0,20.729919 c 0,6.398009 5.146852,11.544859 11.544859,11.544859 l 53.077307,0 c 6.398006,0 11.544858,-5.14685 11.544858,-11.544859 l 0,-20.729919 7.04309,0 c 5.77932,0 8.13298,-6.792912 3.48524,-11.036595 l -16.046627,-14.667053 0,-25.376906 c 0,-1.033238 -0.818296,-1.851535 -1.851534,-1.851535 l -9.947456,0 c -1.033239,0 -1.851534,0.818297 -1.851534,1.851535 l 0,12.888128 L 64.012651,19.99884 z"/>
  </symbol>
  <symbol id="markdown-file" viewBox="0 0 128 128">
    <path d="M 29.09375 11.236328 C 25.90994 11.236328 23.375 13.802524 23.375 16.986328 L 23.375 111.01367 C 23.375 114.19747 25.90994 116.76367 29.09375 116.76367 L 98.90625 116.76367 C 102.09005 116.76367 104.625 114.19747 104.625 111.01367 L 104.625 40.361328 L 83.59375 40.361328 C 79.28764 40.361328 75.53125 37.220219 75.53125 33.048828 L 75.53125 11.236328 L 29.09375 11.236328 z M 79.53125 11.236328 L 79.53125 33.048828 C 79.53125 34.76295 81.16322 36.361328 83.59375 36.361328 L 104.625 36.361328 L 79.53125 11.236328 z M 44.890625 64.341797 L 51.744141 72.365234 L 58.599609 64.341797 L 67.166016 64.507812 L 67.166016 90.546875 L 58.599609 90.546875 L 58.599609 77.443359 L 51.777344 85.927734 L 51.777344 86.009766 L 51.744141 85.970703 L 51.712891 86.009766 L 51.712891 85.927734 L 44.890625 77.443359 L 44.890625 90.546875 L 36.324219 90.546875 L 36.324219 64.507812 L 44.890625 64.341797 z M 75.742188 64.341797 L 84.548828 64.341797 L 84.548828 77.761719 L 91.675781 77.761719 L 80.144531 93.083984 L 68.615234 77.761719 L 75.742188 77.761719 L 75.742188 64.341797 z"/>
  </symbol>
  <symbol id="" viewBox="0 0 128 128">
  </symbol>
  <linearGradient x1="0" y1="0" x2="128" y2="128" id="gradient" gradientUnits="userSpaceOnUse">
    <stop id="stop" style="stop-color:#757575;stop-opacity:1" offset="0" />
    <stop id="start" style="stop-color:#dbdbdb;stop-opacity:1" offset="1" />
  </linearGradient>
  </defs>
  <metadata>
    <rdf:RDF>
      <cc:Work rdf:about="">
        <dc:format>image/svg+xml</dc:format>
        <dc:type rdf:resource="http://purl.org/dc/dcmitype/StillImage" />
        <dc:title></dc:title>
      </cc:Work>
    </rdf:RDF>
  </metadata>
  <g id="layer1" transform="translate(0, -64) scale(0.25)">
  <use xlink:href="#folder" style="fill:url(#gradient);fill-opacity:1;stroke:none" />
  <use xlink:href="#binary-file" style="fill:url(#gradient);fill-opacity:1;stroke:none" transform="translate(128,0)"/>
  <use xlink:href="#svg-file" style="fill:url(#gradient);fill-opacity:1;stroke:none" transform="translate(256,0)"/>
  <use xlink:href="#javascript-file" style="fill:url(#gradient);fill-opacity:1;stroke:none" transform="translate(384,0)"/>
  <use xlink:href="#css-file" style="fill:url(#gradient);fill-opacity:1;stroke:none" transform="translate(0,128)"/>
  <use xlink:href="#php-file" style="fill:url(#gradient);fill-opacity:1;stroke:none" transform="translate(128,128)"/>
  <use xlink:href="#html-file" style="fill:url(#gradient);fill-opacity:1;stroke:none" transform="translate(256,128)"/>
  <use xlink:href="#json-file" style="fill:url(#gradient);fill-opacity:1;stroke:none" transform="translate(384,128)"/>
  <use xlink:href="#image-file" style="fill:url(#gradient);fill-opacity:1;stroke:none" transform="translate(0,256)"/>
  <use xlink:href="#text-file" style="fill:url(#gradient);fill-opacity:1;stroke:none" transform="translate(128,256)"/>
  <use xlink:href="#word-file" style="fill:url(#gradient);fill-opacity:1;stroke:none" transform="translate(256,256)"/>
  <use xlink:href="#pdf-file" style="fill:url(#gradient);fill-opacity:1;stroke:none" transform="translate(384,256)"/>
  <use xlink:href="#blank-file" style="fill:url(#gradient);fill-opacity:1;stroke:none" transform="translate(0,384)"/>
  <use xlink:href="#excel-file" style="fill:url(#gradient);fill-opacity:1;stroke:none" transform="translate(128,384)"/>
  <use xlink:href="#powerpoint-file" style="fill:url(#gradient);fill-opacity:1;stroke:none" transform="translate(256,384)"/>
  <use xlink:href="#markdown-file" style="fill:url(#gradient);fill-opacity:1;stroke:none" transform="translate(384,384)"/>

  <use xlink:href="#drive" style="fill:url(#gradient);fill-opacity:1;stroke:none" transform="translate(0,512)"/>
  <use xlink:href="#optical" style="fill:url(#gradient);fill-opacity:1;stroke:none" transform="translate(128,512)"/>
  <use xlink:href="#home" style="fill:url(#gradient);fill-opacity:1;stroke:none" transform="translate(256,512)"/>

  <use xlink:href="#back" style="fill:url(#gradient);fill-opacity:1;stroke:none" transform="translate(0,640)"/>
  <use xlink:href="#up" style="fill:url(#gradient);fill-opacity:1;stroke:none" transform="translate(128,640)"/>
  <use xlink:href="#forward" style="fill:url(#gradient);fill-opacity:1;stroke:none" transform="translate(256,640)"/>
  <use xlink:href="#refresh" style="fill:url(#gradient);fill-opacity:1;stroke:none" transform="translate(384,640)"/>
  </g>
</svg>
